<?xml version="1.0" standalone="no"?>
<!DOCTYPE svg PUBLIC "-//W3C//DTD SVG 20010904//EN"
 "http://www.w3.org/TR/2001/REC-SVG-20010904/DTD/svg10.dtd">
<svg version="1.0" xmlns="http://www.w3.org/2000/svg"
 width="512.000000pt" height="512.000000pt" viewBox="0 0 512.000000 512.000000"
 preserveAspectRatio="xMidYMid meet">

<g transform="translate(0.000000,512.000000) scale(0.100000,-0.100000)"
fill="#000000" stroke="none">
<path d="M2330 5110 c-494 -48 -950 -230 -1350 -538 -195 -150 -448 -432 -594
-662 -63 -99 -186 -351 -230 -471 -49 -134 -102 -340 -128 -499 -31 -195 -31
-565 0 -760 45 -276 116 -498 237 -745 132 -269 269 -460 489 -681 221 -220
412 -357 681 -489 247 -121 469 -192 745 -237 195 -31 565 -31 760 0 276 45
498 116 745 237 269 132 460 269 681 489 220 221 357 412 489 681 88 179 132
296 180 476 63 240 78 371 78 649 0 278 -15 409 -78 649 -48 180 -92 297 -180
476 -132 269 -269 460 -489 681 -221 220 -412 357 -681 489 -246 121 -474 193
-740 235 -147 23 -475 34 -615 20z m367 -740 c633 -49 1186 -416 1477 -980
459 -891 108 -1984 -784 -2444 -891 -459 -1984 -108 -2444 784 -377 733 -215
1620 399 2180 282 256 682 430 1060 459 143 12 157 12 292 1z"/>
<path d="M2305 4120 c-221 -39 -394 -103 -567 -211 -477 -295 -758 -796 -758
-1349 0 -553 281 -1054 758 -1349 496 -308 1148 -308 1644 0 477 295 758 796
758 1349 0 665 -406 1245 -1039 1486 -230 87 -552 117 -796 74z m155 -563 l0
-384 -57 -12 c-31 -7 -90 -31 -131 -53 l-76 -39 -267 267 c-308 308 -291 266
-150 363 159 109 365 194 531 221 41 6 82 13 90 15 8 1 25 3 38 4 l22 1 0
-383z m385 357 c165 -34 345 -112 496 -215 141 -97 158 -55 -150 -363 l-267
-267 -76 39 c-41 22 -100 46 -131 53 l-57 12 0 384 0 384 58 -6 c31 -4 88 -14
127 -21z m-1058 -716 c145 -145 263 -269 263 -276 0 -8 -9 -27 -21 -43 -25
-35 -63 -131 -73 -182 l-7 -37 -385 0 -385 0 6 58 c30 252 136 507 292 700 19
23 37 42 41 42 4 0 125 -118 269 -262z m1885 181 c134 -175 235 -430 263 -661
l6 -58 -385 0 -385 0 -7 37 c-10 51 -48 147 -73 182 -12 16 -21 35 -21 42 0
18 522 540 535 536 5 -2 36 -37 67 -78z m-938 -437 c264 -124 327 -469 122
-674 -168 -168 -424 -168 -592 0 -128 128 -158 316 -78 480 50 102 163 194
271 222 21 5 77 8 125 6 71 -3 98 -9 152 -34z m-770 -544 c10 -35 34 -94 53
-131 l36 -69 -268 -268 c-148 -148 -273 -266 -278 -263 -5 3 -35 42 -68 86
-121 165 -214 390 -243 589 -9 58 -16 108 -16 112 0 3 173 6 383 6 l384 0 17
-62z m1971 5 c-27 -229 -121 -468 -254 -650 -33 -44 -63 -83 -68 -86 -5 -3
-130 115 -278 263 l-268 268 36 69 c19 37 43 96 53 131 l17 62 384 0 384 0 -6
-57z m-1565 -431 c19 -6 47 -13 63 -16 l27 -6 0 -386 0 -385 -57 6 c-216 25
-437 109 -624 236 -148 101 -164 58 145 368 l269 269 71 -38 c39 -21 87 -42
106 -48z m1076 -471 c-31 -34 -185 -136 -271 -178 -138 -70 -305 -120 -457
-138 l-58 -6 0 385 0 386 28 6 c62 13 120 36 177 68 l60 34 269 -268 c267
-266 270 -269 252 -289z"/>
</g>
</svg>
