<?xml version="1.0" encoding="UTF-8"?>
<svg version="1.1" xmlns="http://www.w3.org/2000/svg" width="512" height="512">
<path d="M0 0 C1.20398438 -0.02191406 2.40796875 -0.04382813 3.6484375 -0.06640625 C15.75351359 1.20895203 23.78664826 11.04224207 31.80786133 19.17773438 C33.20899784 20.58028311 34.61123995 21.98172809 36.01449585 23.38215637 C39.80431939 27.17055051 43.57856888 30.97411965 47.35014176 34.78067207 C51.30658792 38.76849001 55.27730912 42.74204322 59.24650574 46.71716309 C66.75847737 54.24465251 74.25762124 61.78478717 81.7521922 69.329597 C90.26775205 77.90100576 98.79747168 86.45826326 107.32844508 95.01432705 C121.90966001 109.63892215 136.48024533 124.27403732 151.03901672 138.92097473 C151.65349802 139.539154 152.26797932 140.15733327 152.90108126 140.79424524 C154.02862277 141.92863124 155.15608911 143.06309197 156.28345901 144.19764853 C158.64775898 146.57647351 161.01649876 148.94975042 163.40099621 151.3083725 C169.0164679 156.99990469 171.3490928 162.42389202 171.875 170.3125 C171.51766438 184.99074795 159.52498057 193.81828883 149.81005859 203.47509766 C148.86421071 204.41901988 147.91859504 205.36317483 146.97319031 206.30754089 C144.95802902 208.31957312 142.94133359 210.33004952 140.92338181 212.33928299 C137.72545621 215.52353492 134.53148385 218.71173324 131.33804321 221.90048218 C124.56167767 228.66581314 117.78106541 235.42688034 111 242.1875 C103.66912157 249.49629132 96.33901196 256.80584448 89.0137831 264.12029874 C85.84593662 267.28319631 82.675677 270.44364801 79.50347495 273.6021769 C78.00383292 275.09612472 76.50536476 276.59123832 75.00740051 278.08686829 C73.19075977 279.90066472 71.37234305 281.7126851 69.55171204 283.5224762 C65.24026884 287.83354545 61.09308993 292.21659743 57.11799049 296.83975029 C55.24602389 298.99979748 53.28018735 301.0480745 51.26953125 303.07910156 C50.49182373 303.86641663 49.71411621 304.65373169 48.9128418 305.46490479 C47.68754761 306.69657379 47.68754761 306.69657379 46.4375 307.953125 C45.14549683 309.25367828 45.14549683 309.25367828 43.82739258 310.58050537 C42.01685495 312.40043444 40.20490197 314.21895645 38.39160156 316.03613281 C35.62622515 318.81127053 32.87170079 321.59689756 30.1171875 324.3828125 C28.3496183 326.15690779 26.58141076 327.93036735 24.8125 329.703125 C23.99563721 330.53233459 23.17877441 331.36154419 22.3371582 332.21588135 C15.21570064 339.30985789 9.19988923 343.62011713 -1.0625 343.875 C-12.61259343 343.67947242 -18.98215558 337.77212741 -26.86865234 330.02050781 C-28.33706396 328.59921864 -29.84083916 327.23019314 -31.36328125 325.8671875 C-32.27464844 325.02414062 -33.18601562 324.18109375 -34.125 323.3125 C-34.94484375 322.56484375 -35.7646875 321.8171875 -36.609375 321.046875 C-39.00514799 317.67583159 -38.92357809 315.61283493 -38.375 311.5625 C-36.984375 309.3671875 -36.984375 309.3671875 -35.125 307.4375 C-29.7745402 301.08857712 -26.51212475 292.13612481 -26.9765625 283.72265625 C-27.93353938 278.53434042 -29.71389239 273.55850305 -31.375 268.5625 C-32.0670833 266.23527485 -32.7223608 263.90112379 -33.375 261.5625 C-40.67847176 267.60143849 -47.30149421 274.3367487 -53.98413086 281.04125977 C-55.9329687 282.99545624 -57.88709272 284.94425147 -59.84179688 286.89257812 C-61.10448738 288.15592954 -62.36686758 289.41959118 -63.62890625 290.68359375 C-64.4885775 291.54022865 -64.4885775 291.54022865 -65.36561584 292.41416931 C-68.23246903 295.29732697 -70.98085132 298.23419954 -73.62510681 301.32351685 C-77.14273475 305.35870814 -80.8620291 309.12017502 -84.703125 312.84545898 C-86.1418131 314.25120449 -87.58036498 315.65708942 -89.01879883 317.06309509 C-89.76980865 317.79538771 -90.52081848 318.52768032 -91.29458618 319.28216362 C-95.3017338 323.19648626 -99.28814061 327.13185864 -103.27734375 331.06445312 C-108.33822211 336.05315371 -113.40533966 341.03480414 -118.50048828 345.98852539 C-122.63463222 350.00901213 -126.74394581 354.05342399 -130.83752441 358.11519051 C-132.398028 359.65472844 -133.96742867 361.18530241 -135.54577637 362.70654106 C-137.74827452 364.83177452 -139.9176363 366.98621557 -142.08203125 369.15014648 C-143.06678185 370.07861137 -143.06678185 370.07861137 -144.07142639 371.02583313 C-147.40738078 374.40844316 -147.40738078 374.40844316 -148.56530094 378.87762451 C-148.32995151 381.17992039 -147.92958208 383.31741806 -147.375 385.5625 C-147.09182107 386.95578117 -146.80911055 388.34915773 -146.52709961 389.74267578 C-146.19782409 391.16531424 -145.86443056 392.58700462 -145.52734375 394.0078125 C-145.1653507 395.59620278 -144.80404465 397.18474975 -144.44335938 398.7734375 C-143.88214877 401.2231547 -143.31629819 403.67143559 -142.73803711 406.1171875 C-136.34998933 433.26158647 -136.34998933 433.26158647 -141.76582336 443.24740601 C-145.59540893 448.7569631 -150.58994131 453.36919393 -155.33203125 458.0859375 C-156.52074907 459.27989731 -157.70894756 460.47437438 -158.89665222 461.66934204 C-161.37901294 464.16207207 -163.86865463 466.64723445 -166.36352539 469.12744141 C-169.55309314 472.29978808 -172.72180566 475.49208958 -175.88515186 478.69055748 C-178.33076779 481.15816893 -180.78800782 483.61394127 -183.24878502 486.06642532 C-184.42192261 487.23874535 -185.59124642 488.41489524 -186.75657082 489.59498215 C-188.38820096 491.24410632 -190.0350867 492.87636144 -191.68676758 494.50537109 C-193.08431023 495.9014711 -193.08431023 495.9014711 -194.51008606 497.32577515 C-201.60315973 502.86355202 -210.79991356 502.2305697 -219.375 501.5625 C-222.06640625 500.74609375 -222.06640625 500.74609375 -224.3125 499.8125 C-226.36766315 498.91947353 -226.36766315 498.91947353 -228.375 498.5625 C-230.21502942 499.51537238 -232.05129826 500.48077896 -233.828125 501.546875 C-241.51549099 504.61238904 -251.97891505 503.5566409 -259.5625 500.625 C-286.91388834 487.28559339 -316.28561643 460.7709895 -327.69140625 432.2734375 C-331.08118916 422.18676641 -331.90273256 414.5634367 -327.15234375 404.88671875 C-325.86814844 401.04703929 -327.17149731 398.16103734 -328.4375 394.4375 C-330.48064469 385.99250195 -330.12903561 377.47491892 -326.375 369.5625 C-322.86248002 365.05569545 -318.84956077 361.1222035 -314.76953125 357.1328125 C-313.60346841 355.96965857 -312.43866901 354.80523681 -311.27507019 353.63961792 C-308.8421466 351.20989796 -306.39787885 348.79243338 -303.9440918 346.38378906 C-300.81287254 343.30926602 -297.7064899 340.21103905 -294.60764027 337.10392952 C-292.20725029 334.70073066 -289.79674124 332.30789952 -287.38284874 329.91827011 C-286.23420934 328.77978016 -285.08805127 327.63878069 -283.94452858 326.49515152 C-276.2282511 318.79812897 -269.26454222 312.01280648 -257.80761719 311.35888672 C-252.54143383 311.43283376 -247.56469882 312.63972272 -242.453125 313.8203125 C-240.35552801 314.28542357 -238.25786994 314.75025926 -236.16015625 315.21484375 C-232.878285 315.95209357 -229.59750219 316.69376445 -226.31787109 317.44091797 C-223.13628011 318.16243279 -219.95133791 318.8672584 -216.765625 319.5703125 C-215.29213593 319.91390305 -215.29213593 319.91390305 -213.78887939 320.26443481 C-212.41660187 320.56497269 -212.41660187 320.56497269 -211.01660156 320.87158203 C-209.81369476 321.14471725 -209.81369476 321.14471725 -208.58648682 321.42337036 C-205.20961232 321.63581718 -203.33038421 320.36770434 -200.8021698 318.23690796 C-200.2992189 317.73253204 -199.79626801 317.22815613 -199.27807617 316.70849609 C-198.70034958 316.13384613 -198.12262299 315.55919617 -197.52738953 314.96713257 C-196.91378067 314.3463382 -196.30017181 313.72554382 -195.66796875 313.0859375 C-195.02434891 312.44185944 -194.38072906 311.79778137 -193.71760559 311.13418579 C-192.35615702 309.76971862 -190.99713725 308.40282432 -189.64038086 307.03369141 C-187.58555985 304.96076306 -185.52300013 302.89580021 -183.45898438 300.83203125 C-182.13234275 299.50046785 -180.80615656 298.16845051 -179.48046875 296.8359375 C-178.87293259 296.22728851 -178.26539642 295.61863953 -177.63945007 294.99154663 C-174.69779988 292.01793487 -171.85934316 288.99911119 -169.137146 285.82266235 C-165.48539517 281.63313039 -161.63465964 277.68768859 -157.69555664 273.76953125 C-156.96301666 273.03684525 -156.23047668 272.30415924 -155.47573853 271.54927063 C-153.08124337 269.15546582 -150.68323802 266.76521131 -148.28515625 264.375 C-146.61342345 262.70513451 -144.94191295 261.03504643 -143.27061462 259.36474609 C-138.89168864 254.98962068 -134.50976684 250.61750793 -130.12719727 246.24603271 C-125.64742491 241.7765276 -121.17051593 237.30415637 -116.69335938 232.83203125 C-107.92336032 224.07272607 -99.15019113 215.31660347 -90.375 206.5625 C-92.12103931 205.75357594 -93.86876455 204.9482903 -95.6171875 204.14453125 C-96.59026855 203.6956958 -97.56334961 203.24686035 -98.56591797 202.78442383 C-107.70116269 198.81067971 -116.43124009 198.4199284 -125.875 201.50390625 C-130.92019806 203.6402323 -135.50178255 206.68928255 -139.375 210.5625 C-143.51233138 211.07026479 -145.63192497 211.06518198 -149.12573242 208.70166016 C-149.98529541 207.84362793 -150.8448584 206.9855957 -151.73046875 206.1015625 C-152.19939041 205.63696625 -152.66831207 205.17237 -153.15144348 204.69369507 C-154.13710423 203.70841449 -155.11411279 202.71441053 -156.08276367 201.71240234 C-157.54694493 200.20352985 -159.04220786 198.73210307 -160.54492188 197.26171875 C-167.50410378 190.30297459 -172.34126483 183.62083171 -172.875 173.5625 C-172.11839511 162.02947598 -165.97461713 155.32995618 -157.94921875 147.5859375 C-156.91656079 146.56705291 -155.88532087 145.54672934 -154.85542297 144.52505493 C-152.15686616 141.8548671 -149.44124159 139.20276499 -146.72094727 136.55474854 C-143.43233908 133.34783513 -140.16244341 130.12186941 -136.89186573 126.89658546 C-134.34424896 124.38435946 -131.79353918 121.87565468 -129.23136902 119.37826538 C-128.30383316 118.4701712 -127.3762973 117.56207703 -126.4206543 116.62646484 C-125.61331345 115.83944183 -124.8059726 115.05241882 -123.97416687 114.24154663 C-121.95511027 112.1604387 -120.05804699 110.06161174 -118.16937256 107.86679077 C-113.86609483 102.90762132 -109.2535728 98.27810357 -104.61938477 93.62988281 C-103.65579652 92.66001345 -102.69239239 91.68996113 -101.72915649 90.71974182 C-98.59509469 87.56485615 -95.45589556 84.41510812 -92.31640625 81.265625 C-91.22968895 80.17485386 -90.14300333 79.08405115 -89.0563488 77.99321747 C-83.95449094 72.87236611 -78.85026508 67.75388975 -73.74308735 62.63834405 C-67.86719792 56.75266396 -61.99970267 50.85877695 -56.13911015 44.95786595 C-51.59221661 40.38077656 -47.03763943 35.8114245 -42.47727817 31.24775386 C-39.7603312 28.52846316 -37.04675043 25.80600771 -34.34127998 23.07529449 C-31.79812361 20.50878725 -29.2455259 17.95205461 -26.68555069 15.40232658 C-25.3087351 14.02623865 -23.94180865 12.64027821 -22.57527161 11.25398254 C-15.77650665 4.51183154 -9.99096053 -0.01065134 0 0 Z M-19.3203125 24.3125 C-20.39925781 25.42625 -20.39925781 25.42625 -21.5 26.5625 C-22.22445313 27.305 -22.94890625 28.0475 -23.6953125 28.8125 C-24.24960937 29.39 -24.80390625 29.9675 -25.375 30.5625 C-23.76010703 34.60454605 -20.89567833 37.31682311 -17.85888672 40.3215332 C-17.01453316 41.16873428 -17.01453316 41.16873428 -16.15312195 42.03305054 C-14.29182686 43.89804806 -12.42342931 45.75574776 -10.5546875 47.61328125 C-9.25355146 48.91322428 -7.95278586 50.21353819 -6.65237427 51.51420593 C-3.92335014 54.2416657 -1.1910003 56.9657341 1.54394531 59.68725586 C5.03229995 63.1586969 8.51411285 66.63660705 11.99363899 70.11689472 C14.68210618 72.80508844 17.37318421 75.49065577 20.0651207 78.17537498 C21.34858861 79.45568126 22.63146983 80.73657597 23.91373062 82.0180912 C25.71750635 83.81967218 27.52455439 85.61790767 29.33251953 87.4152832 C29.85230881 87.93552567 30.37209808 88.45576813 30.90763855 88.99177551 C33.6583135 91.71919852 36.47365166 94.32003471 39.41073608 96.84625244 C44.27759858 101.06714591 48.80153181 105.60670404 53.34570312 110.16967773 C54.29246879 111.11672614 55.23945603 112.06355308 56.18664551 113.01017761 C58.733788 115.55703553 61.27785553 118.10694441 63.82134438 120.65745044 C66.48874774 123.33114435 69.15902108 126.00196896 71.82897949 128.67311096 C76.87395938 133.72118746 81.91638676 138.77180552 86.95788145 143.82336241 C92.70203632 149.57873052 98.44906237 155.331228 104.19632053 161.08349693 C116.00905755 172.90666048 127.81821893 184.73338868 139.625 196.5625 C140.75699353 195.6544838 141.88032363 194.73566174 143 193.8125 C143.62648438 193.30203125 144.25296875 192.7915625 144.8984375 192.265625 C146.70812318 190.48050519 147.62617455 188.88300356 148.625 186.5625 C127.77218599 165.66410217 106.91428772 144.77078977 86.04923833 123.88460767 C83.58828884 121.42115664 81.12738291 118.95766208 78.66650391 116.49414062 C77.9315996 115.75844939 77.9315996 115.75844939 77.18184875 115.00789571 C69.23951578 107.05685013 61.30072104 99.10228072 53.36321868 91.14641309 C45.22403212 82.98855126 37.08100352 74.83454163 28.93458164 66.68390465 C24.35667119 62.10337954 19.78055704 57.52109087 15.20859146 52.93463135 C10.91037115 48.62289474 6.60754506 44.31581029 2.30105209 40.01233673 C0.71660344 38.42733524 -0.86611602 36.8406031 -2.44702148 35.25206757 C-4.59626458 33.09295635 -6.75149292 30.94000833 -8.90841675 28.78857422 C-9.54070659 28.1504587 -10.17299642 27.51234318 -10.82444656 26.85489082 C-14.71648012 22.28043108 -14.71648012 22.28043108 -19.3203125 24.3125 Z M-52.3203125 57.3125 C-53.39925781 58.42625 -53.39925781 58.42625 -54.5 59.5625 C-55.22445313 60.305 -55.94890625 61.0475 -56.6953125 61.8125 C-57.24960937 62.39 -57.80390625 62.9675 -58.375 63.5625 C-56.9887057 66.6830998 -55.38208912 68.80395627 -52.97021484 71.21020508 C-52.27544037 71.90805618 -51.58066589 72.60590729 -50.86483765 73.3249054 C-50.1128006 74.06975693 -49.36076355 74.81460846 -48.5859375 75.58203125 C-47.80868317 76.35882736 -47.03142883 77.13562347 -46.23062134 77.93595886 C-44.58368327 79.57987633 -42.93431595 81.22136313 -41.28271484 82.8605957 C-38.77521134 85.34997093 -36.2756744 87.84712575 -33.77734375 90.34570312 C-32.17234353 91.94578261 -30.56688894 93.54540648 -28.9609375 95.14453125 C-28.22104584 95.88331009 -27.48115417 96.62208893 -26.71884155 97.383255 C-26.00515411 98.09056259 -25.29146667 98.79787018 -24.55615234 99.52661133 C-23.94041351 100.13853836 -23.32467468 100.75046539 -22.6902771 101.38093567 C-20.7831791 103.17789421 -18.84294393 104.87985782 -16.85317993 106.58233643 C-11.15480756 111.54613202 -5.87439968 116.93144915 -0.54296875 122.28100586 C0.63039511 123.45465228 1.80398018 124.62807759 2.97776794 125.80130005 C6.14265871 128.96590552 9.30447057 132.13357069 12.4657135 135.30181956 C15.77774913 138.62013344 19.09264283 141.93558975 22.40722656 145.25135803 C28.67405502 151.52128667 34.93833137 157.79375863 41.20168114 164.0671621 C48.33638364 171.21306662 55.47394745 178.35611028 62.61174583 185.49892223 C77.28600295 200.18361398 91.9566865 214.87187142 106.625 229.5625 C107.75349651 228.61458552 108.87927841 227.66343866 110.00390625 226.7109375 C110.63111572 226.18161621 111.2583252 225.65229492 111.90454102 225.10693359 C113.77544638 223.42744625 115.24925719 221.66657724 116.625 219.5625 C113.962658 216.87068725 111.29433333 214.18487853 108.625 211.5 C107.88121094 210.74783203 107.13742187 209.99566406 106.37109375 209.22070312 C105.62988281 208.47626953 104.88867188 207.73183594 104.125 206.96484375 C103.4546875 206.28929443 102.784375 205.61374512 102.09375 204.91772461 C100.20928459 203.11991629 98.31323454 201.44743768 96.32870483 199.76818848 C89.88124588 194.13531428 83.93143785 187.9829146 77.89697266 181.91625977 C76.51997682 180.53570306 75.14274256 179.15538412 73.76528931 177.77528381 C70.81308798 174.81655995 67.86240317 171.85633501 64.91286087 168.8949604 C60.25217629 164.2159248 55.58709542 159.54128913 50.92123413 154.86741638 C37.65905884 141.58112856 24.4028709 128.28887617 11.15087891 114.99243164 C3.82172381 107.63876927 -3.51098859 100.2886729 -10.84757197 92.94242138 C-15.49087572 88.29256128 -20.12962957 83.63822307 -24.76511073 78.98056519 C-27.63989151 76.09409846 -30.51880201 73.21177918 -33.3989296 70.33064842 C-34.73828159 68.98913984 -36.07590041 67.64589842 -37.41169739 66.30084991 C-39.22771414 64.47273813 -41.04970013 62.65079736 -42.87338257 60.83033752 C-43.67355775 60.02040064 -43.67355775 60.02040064 -44.48989809 59.19410139 C-48.11039679 55.1485175 -48.11039679 55.1485175 -52.3203125 57.3125 Z M-33.96484375 174.5546875 C-37.39213061 179.43453638 -38.20852426 184.70645776 -37.375 190.5625 C-35.4302284 197.70153499 -31.47870464 202.45926466 -25.375 206.5625 C-19.58967475 209.35251976 -13.27862761 209.67877707 -7.09375 207.91015625 C-0.67773917 205.03528986 3.70394153 200.1238128 6.5625 193.75 C8.3564867 188.19616093 7.98331041 182.66334408 5.64453125 177.32421875 C2.05276868 171.15196657 -2.52219039 166.87038861 -9.375 164.5625 C-20.20572875 163.17020901 -27.16455814 166.15889069 -33.96484375 174.5546875 Z M-81.98959732 213.80516052 C-82.86779444 214.68555748 -82.86779444 214.68555748 -83.76373291 215.58374023 C-84.43928726 216.25372543 -85.11484161 216.92371063 -85.81086731 217.61399841 C-86.54649399 218.35883987 -87.28212067 219.10368134 -88.04003906 219.87109375 C-89.20888893 221.03687706 -89.20888893 221.03687706 -90.40135193 222.22621155 C-92.98843091 224.81027071 -95.56457474 227.40494971 -98.140625 230 C-99.93502484 231.79745726 -101.73001586 233.59432453 -103.52557373 235.390625 C-107.29621113 239.16587407 -111.06206944 242.94579398 -114.82373047 246.72998047 C-119.63281969 251.56781085 -124.45100726 256.39646932 -129.27225113 261.22218323 C-132.98434148 264.937846 -136.69299511 268.65693252 -140.40093231 272.3767395 C-142.17539783 274.15688384 -143.95032031 275.93657279 -145.72571564 277.71578979 C-148.21720578 280.21420371 -150.70529383 282.71595574 -153.19238281 285.21875 C-153.91991257 285.94739761 -154.64744232 286.67604523 -155.39701843 287.42677307 C-159.34927573 291.41188834 -163.13728512 295.48596064 -166.78797817 299.74975681 C-169.56914943 302.92649274 -172.56148432 305.89165496 -175.55078125 308.87109375 C-176.20201462 309.52328384 -176.85324799 310.17547394 -177.5242157 310.84742737 C-178.88511535 312.20900136 -180.2472538 313.56933824 -181.6105957 314.9284668 C-183.70316325 317.01562274 -185.79026824 319.10813632 -187.87695312 321.20117188 C-189.20540819 322.52896705 -190.53417293 323.85645247 -191.86328125 325.18359375 C-192.48721268 325.80954941 -193.1111441 326.43550507 -193.75398254 327.08042908 C-199.18466436 332.48148805 -199.18466436 332.48148805 -203.33447266 332.76391602 C-208.36061806 332.6849904 -213.14547601 331.46290195 -218.0234375 330.33984375 C-220.10147971 329.87918366 -222.17960741 329.4189091 -224.2578125 328.95898438 C-227.50647509 328.23125058 -230.75400956 327.49908646 -234 326.75952148 C-237.15100461 326.04466599 -240.30554456 325.34753315 -243.4609375 324.65234375 C-244.42059418 324.42844467 -245.38025085 324.20454559 -246.36898804 323.97386169 C-252.10713404 322.72154478 -257.68522443 321.62112459 -263.375 323.5625 C-266.42612183 325.53008055 -268.84082155 327.97716887 -271.375 330.5625 C-272.18637421 331.34562561 -272.99774841 332.12875122 -273.83370972 332.93560791 C-276.63990921 335.64524868 -279.41568112 338.38421895 -282.18359375 341.1328125 C-282.68250689 341.62765011 -283.18142002 342.12248772 -283.69545174 342.6323204 C-286.32551539 345.24171131 -288.95242681 347.85422957 -291.5769043 350.46923828 C-294.28087501 353.16205628 -296.9963451 355.84297261 -299.71440029 358.52156258 C-301.81339605 360.59444361 -303.90348531 362.67613309 -305.99125862 364.76031113 C-306.98903809 365.75322796 -307.99018648 366.74277159 -308.99477959 367.7287941 C-310.39447469 369.10416401 -311.78045153 370.4934528 -313.16577148 371.88330078 C-313.95660629 372.66826935 -314.7474411 373.45323792 -315.5622406 374.26199341 C-318.90308767 378.50174012 -318.73009479 383.3248519 -318.375 388.5625 C-317.28852782 392.49627858 -315.84613401 395.86392198 -313.5625 399.25 C-312.375 401.5625 -312.375 401.5625 -312.9375 404.0625 C-314.51325098 406.80293648 -316.37922323 409.11606396 -318.375 411.5625 C-321.12610807 419.81582421 -318.08757088 426.07156585 -314.375 433.5625 C-301.17830268 457.30345671 -276.94589739 482.60260452 -250.69140625 491.46875 C-245.58031799 492.77569494 -241.88803471 492.71722795 -237.04296875 490.5703125 C-235.15906882 489.53884809 -235.15906882 489.53884809 -233.3125 487.3125 C-231.375 485.5625 -231.375 485.5625 -228 485.5625 C-224.375 486.5625 -224.375 486.5625 -221.75 488.625 C-216.59629639 491.58360763 -211.13837504 491.95388688 -205.375 490.5625 C-198.57350156 485.61101883 -192.75535925 479.1062484 -186.8203125 473.17578125 C-185.82769681 472.18638682 -184.83500952 471.19706422 -183.84225464 470.20780945 C-181.77816195 468.14965836 -179.71609896 466.0894984 -177.65527344 464.02807617 C-175.01752805 461.39022845 -172.37292428 458.75937155 -169.72657967 456.13015461 C-167.68140765 454.0960977 -165.64079327 452.0575155 -163.60143661 450.01762962 C-162.62784036 449.04521057 -161.6526287 448.07440601 -160.67575455 447.10527992 C-159.31440999 445.75374203 -157.96002438 444.39520561 -156.60595703 443.03637695 C-155.83510773 442.26695267 -155.06425842 441.49752838 -154.27005005 440.70478821 C-150.20084035 436.10468809 -150.05234443 432.52718274 -150.16818237 426.54824829 C-150.49788424 421.7884664 -151.49316666 417.26921826 -152.59765625 412.63671875 C-152.82198837 411.64549515 -153.0463205 410.65427155 -153.27745056 409.63301086 C-153.98631583 406.5026637 -154.71003963 403.37607432 -155.4375 400.25 C-156.39956204 396.11088112 -157.34664747 391.96873325 -158.28515625 387.82421875 C-158.50905533 386.88350021 -158.73295441 385.94278168 -158.96363831 384.97355652 C-159.26406288 383.64606133 -159.26406288 383.64606133 -159.57055664 382.29174805 C-159.84036095 381.13572334 -159.84036095 381.13572334 -160.11561584 379.9563446 C-160.54000195 376.03970448 -160.51871684 373.08881675 -158.06945515 369.82021999 C-156.21045207 367.78771205 -154.27909326 365.86011002 -152.30419922 363.93994141 C-151.56427231 363.20089066 -150.8243454 362.4618399 -150.06199646 361.70039368 C-147.61273928 359.25971732 -145.14635692 356.83712919 -142.6796875 354.4140625 C-140.97036531 352.71661304 -139.2622212 351.01797652 -137.5552063 349.31820679 C-133.05426074 344.84202569 -128.53896592 340.38060692 -124.02008057 335.92254639 C-117.6707653 329.65353313 -111.34088726 323.36488697 -105.00906372 317.07821655 C-101.63860104 313.7318621 -98.26271421 310.39113357 -94.8822937 307.05484009 C-93.3288921 305.51786924 -91.77551556 303.98087308 -90.22216797 302.44384766 C-89.52889908 301.76202927 -88.83563019 301.08021088 -88.12135315 300.37773132 C-84.20608868 296.49738513 -80.50666205 292.49794096 -76.90692139 288.32347679 C-75.13329904 286.28465952 -73.28157623 284.34853932 -71.36743164 282.44140625 C-70.31713524 281.39122314 -70.31713524 281.39122314 -69.24562073 280.31982422 C-68.51616745 279.59553223 -67.78671417 278.87124023 -67.03515625 278.125 C-66.26819931 277.35945801 -65.50124237 276.59391602 -64.71104431 275.80517578 C-62.28889119 273.38856803 -59.86326388 270.97548274 -57.4375 268.5625 C-55.78297107 266.91299314 -54.12867198 265.26325571 -52.47460938 263.61328125 C-48.44405798 259.59368629 -44.41065728 255.57696831 -40.375 251.5625 C-46.01267105 236.79140321 -63.67908864 220.27260837 -77.375 212.5625 C-80.31833862 212.25754247 -80.31833862 212.25754247 -81.98959732 213.80516052 Z " fill="#000000" transform="translate(335.375,4.4375)"/>
<path d="M0 0 C0.92425781 0.00974854 1.84851563 0.01949707 2.80078125 0.02954102 C17.77312654 0.41725536 29.72475337 6.92802665 40.0625 17.625 C49.98966708 29.61331617 53.73876961 43.12884199 52.87841797 58.43310547 C51.60526001 71.79963592 44.14419985 84.08497996 34.5703125 93.17578125 C21.1747812 103.68528345 6.21735375 105.74317565 -10.3125 104.4375 C-14.65256566 103.62833522 -18.35319075 102.37181902 -22.3125 100.4375 C-23.16714844 100.025 -24.02179688 99.6125 -24.90234375 99.1875 C-38.00743152 92.07965579 -46.01991288 81.25967495 -50.515625 67.3671875 C-54.29864236 53.45903545 -52.62820157 39.52407227 -46.1875 26.6875 C-38.70293866 13.75679216 -26.87007683 5.48689762 -12.71337891 1.00878906 C-8.48448634 0.00252421 -4.32996019 -0.05118813 0 0 Z " fill="#000000" transform="translate(101.3125,358.5625)"/>
<path d="M0 0 C10.663272 6.23964388 20.10975244 15.76902635 27 26 C22.10671733 31.88685302 16.84774606 37.31906006 11.44970703 42.74316406 C10.49612579 43.70466402 9.5427209 44.6663389 8.58947754 45.62817383 C5.48262545 48.76101309 2.37052872 51.88861372 -0.7421875 55.015625 C-1.81866097 56.09746531 -2.89512909 57.17931094 -3.97159195 58.2611618 C-8.44924765 62.76040033 -12.92832512 67.25821543 -17.41113091 71.75232315 C-23.81432769 78.17177819 -30.20886455 84.59959131 -36.59170043 91.03929353 C-41.0943814 95.58070845 -45.60663839 100.11246667 -50.12608445 104.63719726 C-52.81977023 107.33452791 -55.50915037 110.03584045 -58.18835068 112.74756622 C-60.70719048 115.29655233 -63.23773271 117.83331728 -65.77755737 120.36138916 C-67.14414865 121.72765586 -68.49835527 123.10627557 -69.8520813 124.48529053 C-75.71046948 130.28474523 -80.16331088 133.39541386 -88.5 134.4375 C-94.46378203 133.69202725 -98.46332848 131.40304791 -102.875 127.375 C-106.01693845 122.38486247 -107.37696228 117.62748953 -106.76171875 111.70703125 C-103.96728309 100.96651326 -92.84793655 92.70252955 -85.25756836 85.14404297 C-84.32966492 84.2159935 -83.40176147 83.28794403 -82.44573975 82.33177185 C-79.93412248 79.81987106 -77.4194638 77.31103624 -74.90419078 74.80279684 C-72.26386539 72.16877997 -69.62642654 69.53187582 -66.98866272 66.89529419 C-62.00794571 61.9176686 -57.02468825 56.94259463 -52.0404821 51.96846306 C-46.36002779 46.29923836 -40.68245843 40.62712813 -35.00511348 34.95478988 C-23.33991897 23.30001011 -11.67115918 11.64880679 0 0 Z " fill="#000000" transform="translate(257,228)"/>
</svg>
