<?xml version="1.0" encoding="UTF-8"?>
<svg version="1.1" xmlns="http://www.w3.org/2000/svg" width="512" height="512">
<path d="M0 0 C0.80994498 -0.00445784 1.61988996 -0.00891569 2.45437872 -0.01350862 C3.33860617 -0.01332426 4.22283361 -0.01313989 5.13385582 -0.01294994 C6.07760201 -0.01662663 7.0213482 -0.02030332 7.99369276 -0.02409142 C11.16406631 -0.03512673 14.33440709 -0.03897186 17.50479698 -0.04278088 C19.77484809 -0.04904566 22.04489817 -0.05569247 24.31494713 -0.0626936 C31.77714893 -0.08373519 39.23935094 -0.0940963 46.70157433 -0.10406017 C49.27067005 -0.10810774 51.83976566 -0.11222466 54.40886116 -0.11641026 C65.09592064 -0.13327923 75.78297673 -0.14791369 86.470047 -0.155159 C89.24204701 -0.15706878 92.01404701 -0.15898913 94.78604698 -0.16094494 C95.4749845 -0.16142868 96.16392202 -0.16191242 96.87373643 -0.16241082 C108.02800255 -0.17070682 119.18216129 -0.19603726 130.33638056 -0.22852562 C141.79715036 -0.26163374 153.2578401 -0.27927866 164.71866262 -0.28280324 C171.14985285 -0.28515335 177.58087331 -0.29410901 184.0120182 -0.31926441 C190.06458608 -0.34255637 196.11687256 -0.34677361 202.16947365 -0.33650303 C204.38739012 -0.33600783 206.60532051 -0.34232342 208.8231945 -0.35605907 C211.85888685 -0.37380323 214.89357203 -0.36665894 217.92926598 -0.35352612 C218.80010909 -0.36449536 219.6709522 -0.37546461 220.56818449 -0.38676625 C231.46195453 -0.27354043 241.31190813 4.77236425 249.11173058 12.23968983 C253.34537356 16.78635632 256.64677005 21.33526811 258.91251183 27.13422108 C259.25382574 27.92627005 259.59513966 28.71831902 259.94679642 29.53436947 C261.31358705 34.62929021 261.18085996 39.49852839 261.15302086 44.75137806 C261.15558413 46.51703717 261.15558413 46.51703717 261.15819919 48.31836617 C261.16092042 51.57712127 261.15468298 54.83571664 261.14464307 58.09445286 C261.13599633 61.61176256 261.1389296 65.12906499 261.14044762 68.64638233 C261.14149569 74.73754987 261.13522717 80.82867452 261.12397194 86.91983128 C261.10770943 95.72658652 261.10250816 104.53332106 261.09999596 113.34008969 C261.09562003 127.62890045 261.08231371 141.91768835 261.06339073 156.2064867 C261.04502928 170.08571731 261.03087407 183.96494171 261.02237511 197.84418201 C261.02184966 198.6998734 261.02132421 199.55556479 261.02078284 200.43718623 C261.01817275 204.72999083 261.01564533 209.02279548 261.01315904 213.31560016 C260.99242973 248.92182342 260.95720699 284.52802014 260.91251183 320.13422108 C262.20576378 320.10449207 263.49901573 320.07476307 264.83145714 320.04413319 C266.55117417 320.0200853 268.27090152 319.99676786 269.99063683 319.97406483 C270.84029015 319.95259388 271.68994347 319.93112293 272.56534386 319.90900135 C281.94353524 319.81630467 288.80408008 323.14473446 295.85001183 329.25922108 C303.75366156 338.37259982 304.6286881 348.91253483 304.60001183 360.50922108 C304.61182141 363.14243855 304.64108436 365.77452309 304.67423058 368.40765858 C304.67382774 369.55669666 304.67342491 370.70573475 304.67300987 371.88959217 C304.92630969 375.32114631 305.51680092 377.98944003 306.91251183 381.13422108 C310.63210845 382.37408662 314.05417333 382.81112257 317.91251183 382.13422108 C321.42632601 379.44278893 323.1923244 377.45867353 323.91251183 373.13422108 C324.01529031 370.67423003 324.06725602 368.24185959 324.07073021 365.78174305 C324.07566819 365.03920237 324.08060616 364.2966617 324.08569378 363.53161979 C324.10105578 361.04271048 324.10942588 358.55382694 324.11783409 356.06488514 C324.12741363 354.28106427 324.13742376 352.49724567 324.14783287 350.71342945 C324.17487973 345.868794 324.1958905 341.0241488 324.21583486 336.1794796 C324.23769573 331.11723586 324.26508393 326.05502214 324.2918911 320.99280262 C324.34181659 311.4058499 324.38675597 301.81888052 324.42991346 292.23189521 C324.47928705 281.31784276 324.53420474 270.40382043 324.58959305 259.48979712 C324.7034109 237.03796653 324.8102504 214.58610706 324.91251183 192.13422108 C324.29726646 192.14192524 323.6820211 192.1496294 323.04813194 192.15756702 C322.23960777 192.16355915 321.4310836 192.16955128 320.5980587 192.17572498 C319.79718834 192.18342915 318.99631798 192.19113331 318.17117882 192.19907093 C309.2066216 191.94168451 300.34615436 186.28182216 293.97501183 180.32172108 C284.90818809 170.62959916 281.61029381 159.38434716 281.57657433 146.37640858 C281.56991753 145.46972431 281.56326073 144.56304005 281.55640221 143.6288805 C281.54633551 141.72459393 281.54158332 139.82027251 281.54190636 137.91595936 C281.5375134 135.01026102 281.50107694 132.10605965 281.46329308 129.20062733 C281.4574275 127.34255956 281.45345637 125.48448465 281.45157433 123.62640858 C281.43720329 122.76377399 281.42283226 121.90113941 281.40802574 121.01236439 C281.47988832 111.49886461 287.08074489 106.67585216 293.52188683 100.32953358 C294.24869652 99.60555378 294.97550621 98.88157398 295.72434044 98.1356554 C298.03238701 95.83874727 300.34731156 93.54891612 302.66251183 91.25922108 C304.23458669 89.69718418 305.80620631 88.13468897 307.37735558 86.57172108 C311.21715334 82.75389958 315.06261271 78.94185468 318.91251183 75.13422108 C314.75038376 70.16408268 310.41220507 65.50988161 305.79923058 60.95843983 C305.14421059 60.30720646 304.4891906 59.65597309 303.81432152 58.98500538 C301.74531801 56.9281088 299.67308049 54.87451995 297.60001183 52.82172108 C294.85106655 50.09931429 292.10541538 47.37364691 289.36173058 44.64593983 C288.72950081 44.0220084 288.09727104 43.39807697 287.4458828 42.75523853 C282.03677737 37.37687651 282.03677737 37.37687651 281.53751183 32.38422108 C281.56192407 29.0336404 282.15649829 27.28527576 284.28751183 24.69672108 C287.45456525 21.60507368 288.15311633 21.23896528 292.53751183 20.63422108 C303.18505909 20.9076582 314.81273894 37.98263627 321.93106651 45.17328358 C323.90192773 47.16238462 325.87499029 49.14925106 327.85001183 51.13422108 C328.47754356 51.76497547 329.1050753 52.39572987 329.75162315 53.04559803 C333.49482449 56.78480182 337.29714031 60.38787004 341.39688683 63.73968983 C345.22468145 67.2616555 346.76918688 70.40202655 347.04016232 75.56761461 C347.04140882 76.48361278 347.04265532 77.39961094 347.04393959 78.34336662 C347.04778074 79.40349938 347.05162188 80.46363215 347.05557942 81.55589014 C347.05471294 82.71958374 347.05384646 83.88327734 347.05295372 85.08223438 C347.0574104 86.93781897 347.0574104 86.93781897 347.06195712 88.83089012 C347.06913847 92.26670975 347.07181653 95.70247938 347.07255459 99.13830292 C347.07440573 102.84332313 347.08195349 106.5483325 347.0886898 110.25334644 C347.10227261 118.35689401 347.10829808 126.46043663 347.11270046 134.56399369 C347.1154636 139.62557565 347.11970115 144.68715571 347.12420464 149.74873638 C347.13639842 163.766772 347.14669675 177.7848061 347.15007973 191.80284691 C347.15029929 192.70009306 347.15051886 193.59733922 347.15074508 194.52177465 C347.15096336 195.42115638 347.15118163 196.32053812 347.15140653 197.24717385 C347.15184999 199.06963035 347.15229655 200.89208684 347.1527462 202.71454334 C347.15296763 203.61854281 347.15318906 204.52254228 347.1534172 205.45393568 C347.15736288 220.09295561 347.17480937 234.7319257 347.19810572 249.37092639 C347.22183874 264.40592311 347.23428251 279.44089485 347.23544765 294.4759106 C347.23636344 302.91526499 347.24209134 311.35455447 347.26026726 319.79389095 C347.27569475 326.98240957 347.28077321 334.17084322 347.27252916 341.35937525 C347.26863168 345.02453709 347.26950775 348.68952798 347.2835865 352.35466862 C347.2987379 356.3356262 347.29043192 360.31634535 347.2800045 364.29732227 C347.29208911 366.01944009 347.29208911 366.01944009 347.30441785 367.77634817 C347.22990612 379.9697283 344.7904579 389.03023922 336.24844933 397.85297108 C330.31039783 403.38430672 323.04201908 406.04010168 314.93204308 406.18890858 C305.78414076 405.67635863 299.01437873 403.70106186 292.03751183 397.63422108 C291.33626183 396.80922108 290.63501183 395.98422108 289.91251183 395.13422108 C289.23188683 394.41234608 288.55126183 393.69047108 287.85001183 392.94672108 C281.84100357 384.22396716 281.3293885 375.69143364 281.28751183 365.32172108 C281.26196129 362.75261466 281.22843213 360.18357204 281.18594933 357.61468983 C281.17998741 356.48957996 281.1740255 355.3644701 281.16788292 354.205266 C280.90419066 351.03415229 280.42202549 348.9287643 278.91251183 346.13422108 C273.8723049 341.79002673 273.8723049 341.79002673 260.91251183 342.13422108 C260.91251183 369.85422108 260.91251183 397.57422108 260.91251183 426.13422108 C264.21251183 426.46422108 267.51251183 426.79422108 270.91251183 427.13422108 C282.03258843 429.76904178 291.50347499 436.68009459 297.91251183 446.13422108 C301.13452283 452.61997899 304.00613451 459.1404048 304.07364464 466.45624256 C304.08325218 467.30069431 304.09285973 468.14514606 304.10275841 469.01518726 C304.10913322 470.37155041 304.10913322 470.37155041 304.11563683 471.75531483 C304.1213369 472.6922266 304.12703697 473.62913837 304.13290977 474.59444141 C304.14234492 476.57391707 304.14888785 478.55340833 304.1527462 480.53290272 C304.16246512 483.55718821 304.19350794 486.58079772 304.22501183 489.6049242 C304.23154104 491.53005038 304.23679183 493.45518141 304.24063683 495.38031483 C304.25298363 496.28253269 304.26533043 497.18475056 304.27805138 498.11430836 C304.26099739 502.93088539 304.11375298 506.26394491 300.91251183 510.13422108 C297.38119796 512.48843032 295.933659 512.38703323 291.75046635 512.39428329 C290.45237024 512.40134889 289.15427413 512.40841448 287.81684178 512.41569418 C286.36774903 512.41344259 284.91865657 512.41099607 283.46956444 512.40837574 C281.93682303 512.4128257 280.40408391 512.41813894 278.8713482 512.42424446 C274.64830684 512.43846402 270.42533894 512.44008701 266.20227706 512.43964756 C261.6520547 512.44129229 257.10186291 512.45435233 252.55165672 512.46584034 C242.59720397 512.48871606 232.6427725 512.49661368 222.68829703 512.50166678 C216.47546301 512.50492074 210.2626352 512.51144138 204.04980469 512.51866817 C186.85609162 512.53823727 169.66238433 512.55463973 152.4686594 512.55754471 C151.36782275 512.55773228 150.2669861 512.55791985 149.13279076 512.5581131 C146.90101993 512.55847936 144.6692491 512.55884306 142.43747827 512.55920421 C141.32958846 512.55938702 140.22169866 512.55956984 139.08023643 512.55975819 C137.97099811 512.55993874 136.86175978 512.56011928 135.71890817 512.5603053 C117.73968847 512.56384799 99.76058847 512.59087487 81.7814103 512.62825608 C63.33269747 512.6663073 44.88404407 512.68570195 26.43529111 512.68600422 C16.07282748 512.6865895 5.71050664 512.69512694 -4.65192032 512.72400188 C-13.47473086 512.74847318 -22.29734656 512.75582747 -31.12018184 512.74075436 C-35.62325612 512.73356804 -40.12594532 512.73451663 -44.62897682 512.75716496 C-48.75029305 512.77769516 -52.87092668 512.77521102 -56.99223503 512.75429011 C-58.48417193 512.75078372 -59.97615749 512.75575377 -61.46803055 512.76999455 C-74.01254745 512.8820338 -74.01254745 512.8820338 -77.95995045 509.70856285 C-81.77133912 505.09674472 -81.24692436 500.8081108 -81.25545692 495.00140858 C-81.26044952 493.81359287 -81.26044952 493.81359287 -81.26554298 492.60178089 C-81.27059977 490.92575122 -81.2729517 489.2497115 -81.27279091 487.5736742 C-81.27496266 485.03899439 -81.2930905 482.5047606 -81.31209755 479.97015858 C-81.36994162 464.05488813 -79.52771502 450.04840234 -68.06795692 437.88031483 C-60.93794112 431.59408788 -52.29502225 427.40775826 -42.83748817 426.56000233 C-41.4994413 426.43685658 -41.4994413 426.43685658 -40.13436317 426.31122303 C-39.12116005 426.22360706 -39.12116005 426.22360706 -38.08748817 426.13422108 C-38.08900706 425.31392927 -38.09052594 424.49363747 -38.09209085 423.64848834 C-38.18163317 375.01467294 -38.25024959 326.3808663 -38.29174949 277.74698495 C-38.29675223 271.90544177 -38.30192952 266.06389877 -38.30721474 260.22235584 C-38.30826398 259.05942612 -38.30931322 257.89649639 -38.31039426 256.69832637 C-38.32779215 237.87655769 -38.35932647 219.05483796 -38.39609936 200.23309831 C-38.43352587 180.9154766 -38.45572765 161.5978805 -38.46384215 142.28022403 C-38.46932636 130.36339344 -38.48663823 118.4467012 -38.51915404 106.52991321 C-38.54032301 98.35443362 -38.54668281 90.1790254 -38.54149368 82.00352041 C-38.53893563 77.2890197 -38.54281433 72.57476052 -38.56431007 67.86030293 C-38.58387529 63.53752378 -38.58469399 59.21514698 -38.57108375 54.89234873 C-38.56940337 53.33491905 -38.57439283 51.77746355 -38.5870209 50.22008417 C-38.69943919 35.49012238 -36.16390104 23.30045874 -26.08748817 12.13422108 C-19.02238573 5.40734162 -9.98835437 0.02560093 0 0 Z M7.91251183 46.13422108 C5.00111487 50.50131651 4.78815657 54.35635405 4.77879906 59.51653004 C4.77453407 60.58332996 4.77026909 61.65012989 4.76587486 62.74925709 C4.76632805 63.90939823 4.76678123 65.06953938 4.76724815 66.26483631 C4.76388954 67.49463215 4.76053093 68.72442799 4.75707054 69.99149036 C4.74920674 73.3572112 4.74589349 76.72287034 4.74525476 80.08859611 C4.74454298 82.19309709 4.74240627 84.29759164 4.73975754 86.40209103 C4.730513 93.74875898 4.72642163 101.09540882 4.72720909 108.44208241 C4.72780999 115.28297266 4.71725346 122.12378408 4.70146543 128.96465439 C4.68837914 134.84505885 4.68302564 140.72543757 4.6836645 146.60585648 C4.68391912 150.11486082 4.68108763 153.62379505 4.67048645 157.13278484 C4.65898422 161.04662487 4.66355897 164.96035714 4.6695919 168.87421131 C4.6639724 170.03232822 4.65835289 171.19044514 4.6525631 172.3836565 C4.63587628 181.52145835 4.63587628 181.52145835 8.78751183 189.44672108 C12.94721379 192.75001382 17.55724123 192.28069829 22.67345238 192.27466297 C23.46005672 192.27763409 24.24666107 192.28060522 25.05710191 192.28366637 C27.69552079 192.29234489 30.33389425 192.2938609 32.97232628 192.29535389 C34.8630133 192.29998264 36.75369939 192.30500737 38.64438438 192.31039906 C43.78288305 192.32351898 48.92136865 192.32996714 54.05988145 192.33440971 C57.27011557 192.33734089 60.48034613 192.34144577 63.69057846 192.34591389 C73.73444868 192.3595873 83.77831074 192.36925491 93.82218963 192.37311578 C105.41692482 192.37759729 117.01154217 192.3951502 128.60624152 192.42411637 C137.56856793 192.44572929 146.53086117 192.45581984 155.49321336 192.4571569 C160.8461381 192.45820513 166.19895205 192.46411712 171.55184937 192.48197651 C176.58744285 192.49845055 181.62284216 192.50061589 186.65845299 192.4918375 C188.50512461 192.49106679 190.35180665 192.49541431 192.198452 192.50529575 C194.72273906 192.51800959 197.2463378 192.51214171 199.77062035 192.50171375 C200.498455 192.50977016 201.22628965 192.51782656 201.9761799 192.5261271 C207.06742131 192.47705989 210.47281451 191.4563063 214.91251183 189.13422108 C219.17201867 183.79259716 218.33378188 177.02800437 218.30069542 170.52289295 C218.30595238 169.25393681 218.31120934 167.98498066 218.3166256 166.6775713 C218.3302639 163.20853806 218.32501515 159.73977347 218.31548834 156.27073574 C218.30787357 152.63403716 218.31494239 148.99736102 218.31964684 145.36066151 C218.32509911 139.2543778 218.31792669 133.14820307 218.30362511 127.04193592 C218.28729953 119.99022706 218.29258842 112.93877845 218.30910432 105.8870759 C218.32273429 99.82404372 218.32463149 93.76108972 218.31678832 87.69804716 C218.31212007 84.08061332 218.31146346 80.46330165 218.32139778 76.84587574 C218.33170198 72.8122777 218.31740549 68.77912575 218.30069542 64.7455492 C218.30980446 62.95462597 218.30980446 62.95462597 218.31909752 61.12752247 C218.37213451 53.13961664 218.37213451 53.13961664 214.91251183 46.13422108 C210.23047447 43.21756635 206.22011284 42.70432291 200.82840538 42.75327015 C199.63262658 42.74625019 199.63262658 42.74625019 198.41269064 42.73908842 C195.75035075 42.72715424 193.08852711 42.73658938 190.4261837 42.74603748 C188.51387291 42.74197108 186.60156447 42.73662881 184.68926048 42.73010731 C179.50130319 42.71643612 174.31352498 42.72173159 169.12556458 42.73124456 C163.69512641 42.73884214 158.26470353 42.73179527 152.83426476 42.72708607 C143.71497407 42.72162881 134.59575629 42.72881937 125.47647667 42.7431078 C114.93477648 42.75943422 104.39325036 42.7541457 93.85155439 42.73762858 C84.79917012 42.72401289 75.74683824 42.72209447 66.69444704 42.72994459 C61.28850419 42.73462063 55.88264314 42.73524779 50.47670555 42.72533512 C45.39428055 42.71666658 40.31207989 42.72268544 35.22967911 42.74001789 C33.36485669 42.74398331 31.50001539 42.74284774 29.6352005 42.7362299 C27.08875188 42.72802652 24.54302121 42.7383212 21.99661827 42.75327015 C20.89087054 42.7432319 20.89087054 42.7432319 19.76278448 42.73299086 C15.08728503 42.78619395 11.86424034 43.62464186 7.91251183 46.13422108 Z " fill="#000000" transform="translate(123.08748817443848,-0.13422107696533203)"/>
</svg>
