<?xml version="1.0" encoding="UTF-8"?>
<svg version="1.1" xmlns="http://www.w3.org/2000/svg" width="512" height="512">
<path d="M0 0 C0.99702942 0.00304138 1.99405884 0.00608276 3.02130127 0.00921631 C19.42648708 0.08285849 35.27597428 1.0474167 51.375 4.4375 C52.40625 4.65180664 53.4375 4.86611328 54.5 5.08691406 C103.13794409 15.52887268 145.80137662 40.10409592 181.375 74.4375 C182.31601562 75.33726563 183.25703125 76.23703125 184.2265625 77.1640625 C190.10004639 82.89207311 195.31043947 88.98932242 200.375 95.4375 C201.16648437 96.42363281 201.95796875 97.40976563 202.7734375 98.42578125 C226.2730685 128.18950947 242.98712035 163.01201372 251.1875 200.0625 C251.37014404 200.88202148 251.55278809 201.70154297 251.7409668 202.54589844 C255.41481566 220.3093395 256.9291671 237.94883914 256.8125 256.0625 C256.80979095 257.05820007 256.80708191 258.05390015 256.80429077 259.07977295 C256.73682319 275.51001697 255.73863428 291.3130609 252.375 307.4375 C252.19308105 308.32856445 252.01116211 309.21962891 251.82373047 310.13769531 C241.52384133 358.94020844 216.77771226 401.79206484 182.375 437.4375 C181.47523438 438.37851562 180.57546875 439.31953125 179.6484375 440.2890625 C173.92042689 446.16254639 167.82317758 451.37293947 161.375 456.4375 C160.38886719 457.22898437 159.40273438 458.02046875 158.38671875 458.8359375 C125.75615761 484.59904555 87.23814087 501.855558 46.375 509.4375 C45.52260742 509.60121094 44.67021484 509.76492188 43.79199219 509.93359375 C15.6895281 515.07986413 -16.59664483 514.908435 -44.625 509.4375 C-45.52202637 509.27652832 -46.41905273 509.11555664 -47.34326172 508.94970703 C-98.50752115 499.69158187 -143.50316505 474.26513966 -180.625 438.4375 C-181.56601563 437.53773438 -182.50703125 436.63796875 -183.4765625 435.7109375 C-189.35004639 429.98292689 -194.56043947 423.88567758 -199.625 417.4375 C-200.41648438 416.45136719 -201.20796875 415.46523438 -202.0234375 414.44921875 C-227.84474052 381.7449501 -244.87640206 343.3353808 -252.625 302.4375 C-252.78871094 301.62812988 -252.95242187 300.81875977 -253.12109375 299.98486328 C-258.59069558 271.99835724 -258.46977511 238.34328161 -252.625 210.4375 C-252.42632324 209.46264648 -252.22764648 208.48779297 -252.02294922 207.48339844 C-241.6600115 157.94312241 -218.70072607 113.86489182 -183.625 77.4375 C-183.12323242 76.91381836 -182.62146484 76.39013672 -182.10449219 75.85058594 C-175.34445743 68.82971383 -168.32061815 62.4407208 -160.625 56.4375 C-159.64144531 55.64859375 -158.65789062 54.8596875 -157.64453125 54.046875 C-128.00197638 30.47371955 -92.9752581 13.8087294 -56 5.625 C-54.77071777 5.35103394 -54.77071777 5.35103394 -53.51660156 5.0715332 C-35.75362958 1.39778136 -18.11333847 -0.11833312 0 0 Z M-135.625 117.4375 C-136.97271484 118.69046875 -136.97271484 118.69046875 -138.34765625 119.96875 C-163.09845745 143.61555863 -179.71429894 175.75324547 -188.5 208.5625 C-188.70326904 209.31958252 -188.90653809 210.07666504 -189.1159668 210.85668945 C-190.07793239 214.63414379 -190.77943202 218.33109687 -191.18408203 222.21044922 C-191.26836456 223.00635468 -191.35264709 223.80226013 -191.43948364 224.62228394 C-191.50070404 225.22130524 -191.56192444 225.82032654 -191.625 226.4375 C-184.6039552 226.48905527 -177.58296076 226.52358358 -170.56176758 226.54736328 C-168.1831683 226.55729748 -165.80458082 226.5708494 -163.42602539 226.58837891 C-151.59223388 226.67328055 -139.82255357 226.67527614 -128.03125 225.56640625 C-127.21719193 225.48999908 -126.40313385 225.41359192 -125.56440735 225.33486938 C-98.54607259 222.45027717 -76.26325354 210.04977624 -56.5 191.875 C-55.9841333 191.4018335 -55.4682666 190.92866699 -54.93676758 190.44116211 C-52.80647817 188.47960173 -50.69625802 186.50875802 -48.6484375 184.4609375 C-34.77211002 171.07364359 -15.10570499 166.78422569 3.53125 166.96875 C24.35329437 167.59972104 40.90619808 175.94851844 55.375 190.4375 C62.01892805 196.72403054 68.66519194 202.49712071 76.375 207.4375 C77.25285156 208.01113281 78.13070313 208.58476562 79.03515625 209.17578125 C106.28355066 226.07953074 136.16386096 226.61166906 167.25 226.5 C169.69140533 226.4949752 172.13281167 226.49041403 174.57421875 226.48632812 C180.50783462 226.47539966 186.44141254 226.4587392 192.375 226.4375 C192.23096646 225.0281796 192.08326549 223.61923379 191.93408203 222.21044922 C191.85223663 221.42580292 191.77039124 220.64115662 191.68606567 219.83273315 C191.18731846 215.99233559 190.25299891 212.29820384 189.25 208.5625 C189.03190674 207.7480542 188.81381348 206.9336084 188.58911133 206.09448242 C179.60363935 173.55376901 162.78539907 144.697333 139.375 120.4375 C138.12009766 119.08785156 138.12009766 119.08785156 136.83984375 117.7109375 C101.23635891 80.44273466 51.59843171 64.22324502 1.375 61.4375 C-50.33029142 61.4375 -98.59978956 81.72524029 -135.625 117.4375 Z M-35.609375 244.70703125 C-43.63237441 255.57539673 -44.6983929 267.35790045 -43.625 280.4375 C-41.12280411 292.56242636 -33.43268742 302.1974904 -23.625 309.4375 C-12.31886684 315.72700454 -0.01888749 317.37609707 12.6875 314.75390625 C24.18053435 310.81950102 34.0674065 303.18091212 40.015625 292.48828125 C45.15106293 281.43528409 46.77291401 268.12658284 42.75 256.375 C37.22836225 243.81710858 28.54989937 234.65669973 15.8203125 229.3125 C-3.5091957 222.39587087 -22.66433968 229.74782086 -35.609375 244.70703125 Z M66.0625 349.25 C49.52444161 370.13030387 44.44938255 393.14897058 46.375 419.4375 C47.65557628 427.70721308 50.13439491 435.72970566 53.375 443.4375 C84.18766499 436.13470622 112.23209619 418.49691288 134.94287109 396.80224609 C136.32199053 395.48801533 137.71735213 394.19089339 139.11328125 392.89453125 C157.32053012 375.47775628 173.56895167 351.51653034 181.375 327.4375 C177.17372614 325.95828066 172.96291556 324.50819524 168.75 323.0625 C166.99429688 322.44375 166.99429688 322.44375 165.203125 321.8125 C128.82522796 309.42002958 91.18353402 320.4471045 66.0625 349.25 Z M-169.625 323.4375 C-170.76066406 323.83839844 -171.89632812 324.23929687 -173.06640625 324.65234375 C-175.59461219 325.55965648 -178.11352546 326.4850552 -180.625 327.4375 C-173.39360225 347.22869383 -162.39518055 365.49900881 -148.625 381.4375 C-147.94308594 382.22898437 -147.26117188 383.02046875 -146.55859375 383.8359375 C-144.28828491 386.4108495 -141.97074709 388.93113647 -139.625 391.4375 C-138.75359375 392.37464844 -137.8821875 393.31179688 -136.984375 394.27734375 C-116.11894806 416.20748161 -83.18373377 438.59954415 -52.625 443.4375 C-51.82740243 441.12690246 -51.03688773 438.81424567 -50.25 436.5 C-50.02828125 435.85998047 -49.8065625 435.21996094 -49.578125 434.56054688 C-43.41956574 416.35657023 -43.16543639 395.60879575 -49.625 377.4375 C-50.26115234 375.64505859 -50.26115234 375.64505859 -50.91015625 373.81640625 C-60.09639583 350.45418693 -78.08593604 333.35869048 -100.72021484 323.25830078 C-123.24894852 313.55032813 -147.03724121 315.36183384 -169.625 323.4375 Z " fill="#000000" transform="translate(255.625,-0.4375)"/>
<path d="M0 0 C4.61581142 2.18643699 6.72864085 4.49599804 9 9 C9.82885269 14.54808604 9.7240695 19.47140883 7.3125 24.5625 C4.21064779 27.8320199 1.61649202 29.75850523 -2.90234375 30.43359375 C-9.05071801 30.44150672 -13.31314296 30.4465054 -18 26 C-21.88937897 20.55860924 -21.79042609 15.48149391 -21 9 C-16.63929544 -0.20593186 -9.3488659 -1.1401056 0 0 Z " fill="#000000" transform="translate(262,256)"/>
</svg>
