<?xml version="1.0" encoding="UTF-8"?>
<svg version="1.1" xmlns="http://www.w3.org/2000/svg" width="512" height="512">
<path d="M0 0 C1 1 1 1 1.12025452 3.36012268 C1.11803391 4.40603073 1.11581329 5.45193878 1.11352539 6.52954102 C1.11344986 7.71068985 1.11337433 8.89183868 1.11329651 10.10877991 C1.10813522 11.3941716 1.10297394 12.67956329 1.09765625 14.00390625 C1.09553383 15.9661338 1.09553383 15.9661338 1.09336853 17.96800232 C1.0895441 21.45162859 1.07971446 24.93521339 1.06866455 28.41882324 C1.05844882 31.97126708 1.05387056 35.52371759 1.04882812 39.07617188 C1.03809212 46.05079832 1.0210166 53.02539717 1 60 C1.66966797 60.06335037 2.33933594 60.12670074 3.02929688 60.19197083 C3.91681641 60.27791 4.80433594 60.36384918 5.71875 60.45239258 C6.59466797 60.53636795 7.47058594 60.62034332 8.37304688 60.7068634 C50.38027669 65.39436858 89.99941151 89.11531261 116.21875 121.90625 C118.96737414 125.50305854 121.52252091 129.21251972 124 133 C124.39622559 133.59989746 124.79245117 134.19979492 125.20068359 134.81787109 C139.06617532 156.08133617 151 184.25326843 151 210 C170.8 210 190.6 210 211 210 C211.45688622 250.66287374 211.45688622 250.66287374 208 267 C207.80132324 267.96873047 207.60264648 268.93746094 207.39794922 269.93554688 C203.1478455 290.22143518 196.95778505 309.72488712 187.08154297 327.99755859 C185.92345909 330.14171298 184.79263007 332.2992534 183.66015625 334.45703125 C178.23752785 344.64014748 172.08184371 353.90390102 165 363 C163.98486328 364.33417969 163.98486328 364.33417969 162.94921875 365.6953125 C157.39481131 372.84819331 151.22724189 379.4354951 145 386 C144.28714844 386.75539063 143.57429688 387.51078125 142.83984375 388.2890625 C137.61435497 393.67550063 131.91371074 398.38880276 126 403 C125.46020508 403.42152344 124.92041016 403.84304688 124.36425781 404.27734375 C88.69879517 431.89195814 43.25713251 450.95438956 -2.328125 451.203125 C-3.19115738 451.21013931 -4.05418976 451.21715363 -4.94337463 451.22438049 C-7.71230343 451.24178751 -10.4810185 451.24823244 -13.25 451.25 C-14.66761124 451.25101212 -14.66761124 451.25101212 -16.11386108 451.25204468 C-29.63815745 451.23667436 -42.74123473 450.8964694 -56 448 C-56.84111328 447.82839355 -57.68222656 447.65678711 -58.54882812 447.47998047 C-91.0231458 440.79514576 -122.64905901 427.23860932 -149 407 C-149.8765625 406.33484375 -150.753125 405.6696875 -151.65625 404.984375 C-158.443354 399.70074341 -164.76878265 393.91965648 -171 388 C-171.58974609 387.44425293 -172.17949219 386.88850586 -172.78710938 386.31591797 C-182.64749595 376.96725324 -191.09726712 367.04414235 -199 356 C-199.43618652 355.40316406 -199.87237305 354.80632812 -200.32177734 354.19140625 C-219.17611448 328.25842324 -230.64152366 298.22011885 -237 267 C-237.26683594 265.78086914 -237.26683594 265.78086914 -237.5390625 264.53710938 C-242.96734709 239.1404922 -242.53308888 208.32805171 -237 183 C-236.82839355 182.15888672 -236.65678711 181.31777344 -236.47998047 180.45117188 C-227.39755863 136.32959446 -205.71162484 98.58819208 -175 66 C-174.31035156 65.2678125 -173.62070313 64.535625 -172.91015625 63.78125 C-167.65953522 58.36956697 -161.90409066 53.6779766 -156 49 C-155.04609375 48.21753906 -154.0921875 47.43507812 -153.109375 46.62890625 C-110.13218764 12.1920574 -54.53821637 -3.3311042 0 0 Z M-107 128 C-107.87398437 128.79792969 -108.74796875 129.59585938 -109.6484375 130.41796875 C-132.64343592 152.19403459 -147.37620413 184.77537018 -148.3359375 216.46875 C-148.3660769 219.14734815 -148.3828512 221.82167048 -148.375 224.5 C-148.37445618 225.20109894 -148.37391235 225.90219788 -148.37335205 226.62454224 C-148.33133141 238.45066436 -147.3230844 249.6102308 -144 261 C-143.79632813 261.71575195 -143.59265625 262.43150391 -143.3828125 263.16894531 C-133.67966426 296.15665453 -110.56927942 325.58819595 -80.52636719 342.3828125 C-64.89393682 350.7137613 -47.72297148 357.18402757 -30 359 C-28.76894531 359.13277344 -27.53789062 359.26554687 -26.26953125 359.40234375 C8.99495903 362.6266952 44.75078575 351.23739952 71.99853516 328.71582031 C98.22352002 306.23360591 115.97917458 275.62462707 120 241 C120.31269503 235.83254098 120.39017136 230.67550101 120.375 225.5 C120.37445618 224.79890106 120.37391235 224.09780212 120.37335205 223.37545776 C120.33133141 211.54933564 119.3230844 200.3897692 116 189 C115.79632813 188.28424805 115.59265625 187.56849609 115.3828125 186.83105469 C105.70713079 153.93672319 82.56668027 124.19402443 52.46191406 107.60107422 C-0.69869286 79.70403854 -62.85701119 86.24865919 -107 128 Z " fill="#000000" transform="translate(240,61)"/>
<path d="M0 0 C8.57919222 0 16.02930138 0.14939601 24.3125 1.625 C25.33666016 1.80393799 26.36082031 1.98287598 27.41601562 2.16723633 C89.31859111 13.37455203 147.09116379 45.99441989 186 96 C186.77601563 96.9590625 187.55203125 97.918125 188.3515625 98.90625 C216.49418159 134.28554257 233.09468731 176.57800201 240 221 C240.19980469 222.28132812 240.39960938 223.56265625 240.60546875 224.8828125 C241.11808691 230.23231291 241 235.62599479 241 241 C208.99 241 176.98 241 144 241 C141.03 232.09 138.06 223.18 135 214 C123.9201428 189.16583732 110.68520296 168.63383634 92 149 C91.34773438 148.29488281 90.69546875 147.58976563 90.0234375 146.86328125 C65.85565615 121.51282124 32.83197506 107.10214617 0 97 C0 64.99 0 32.98 0 0 Z " fill="#000000" transform="translate(271,0)"/>
<path d="M0 0 C0 9.57 0 19.14 0 29 C9.9 29 19.8 29 30 29 C30 19.43 30 9.86 30 0 C48.2178162 3.0363027 62.80953267 8.61869128 78 19 C76.54254576 22.36335594 74.68882146 24.54534005 72.0859375 27.109375 C71.32539063 27.86347656 70.56484375 28.61757812 69.78125 29.39453125 C68.9871875 30.17183594 68.193125 30.94914062 67.375 31.75 C66.57320312 32.54277344 65.77140625 33.33554688 64.9453125 34.15234375 C62.96797154 36.10614493 60.98611091 38.05512103 59 40 C63.06838173 44.8911484 67.34438078 49.47350753 71.875 53.9375 C72.46796875 54.52595703 73.0609375 55.11441406 73.671875 55.72070312 C75.11226466 57.14947674 76.5557967 58.57508132 78 60 C83.57007754 55.46621595 88.5726496 50.48102937 93.55541992 45.31958008 C95.00079767 43.84343598 96.49669224 42.4171041 98 41 C98.66 41 99.32 41 100 41 C109.55540866 53.82841071 119 72.68068667 119 89 C109.43 89 99.86 89 90 89 C90 98.9 90 108.8 90 119 C99.57 119 109.14 119 119 119 C115.9636973 137.2178162 110.38130872 151.80953267 100 167 C96.63664406 165.54254576 94.45465995 163.68882146 91.890625 161.0859375 C91.13652344 160.32539063 90.38242187 159.56484375 89.60546875 158.78125 C88.82816406 157.9871875 88.05085937 157.193125 87.25 156.375 C86.45722656 155.57320312 85.66445313 154.77140625 84.84765625 153.9453125 C82.89385507 151.96797154 80.94487897 149.98611091 79 148 C74.1088516 152.06838173 69.52649247 156.34438078 65.0625 160.875 C64.47404297 161.46796875 63.88558594 162.0609375 63.27929688 162.671875 C61.85052326 164.11226466 60.42491868 165.5557967 59 167 C63.53378405 172.57007754 68.51897063 177.5726496 73.68041992 182.55541992 C75.15656402 184.00079767 76.5828959 185.49669224 78 187 C78 187.66 78 188.32 78 189 C65.17158929 198.55540866 46.31931333 208 30 208 C30 198.43 30 188.86 30 179 C20.1 179 10.2 179 0 179 C0 188.57 0 198.14 0 208 C-18.2178162 204.9636973 -32.80953267 199.38130872 -48 189 C-46.54254576 185.63664406 -44.68882146 183.45465995 -42.0859375 180.890625 C-41.32539063 180.13652344 -40.56484375 179.38242187 -39.78125 178.60546875 C-38.9871875 177.82816406 -38.193125 177.05085937 -37.375 176.25 C-36.57320312 175.45722656 -35.77140625 174.66445313 -34.9453125 173.84765625 C-32.96797154 171.89385507 -30.98611091 169.94487897 -29 168 C-33.06838173 163.1088516 -37.34438078 158.52649247 -41.875 154.0625 C-42.46796875 153.47404297 -43.0609375 152.88558594 -43.671875 152.27929688 C-45.11226466 150.85052326 -46.5557967 149.42491868 -48 148 C-53.57007754 152.53378405 -58.5726496 157.51897063 -63.55541992 162.68041992 C-65.00079767 164.15656402 -66.49669224 165.5828959 -68 167 C-68.66 167 -69.32 167 -70 167 C-79.55540866 154.17158929 -89 135.31931333 -89 119 C-79.43 119 -69.86 119 -60 119 C-60 109.1 -60 99.2 -60 89 C-69.57 89 -79.14 89 -89 89 C-85.9636973 70.7821838 -80.38130872 56.19046733 -70 41 C-66.63664406 42.45745424 -64.45465995 44.31117854 -61.890625 46.9140625 C-61.13652344 47.67460937 -60.38242188 48.43515625 -59.60546875 49.21875 C-58.82816406 50.0128125 -58.05085938 50.806875 -57.25 51.625 C-56.45722656 52.42679688 -55.66445312 53.22859375 -54.84765625 54.0546875 C-52.89385507 56.03202846 -50.94487897 58.01388909 -49 60 C-44.1088516 55.93161827 -39.52649247 51.65561922 -35.0625 47.125 C-34.47404297 46.53203125 -33.88558594 45.9390625 -33.27929688 45.328125 C-31.85052326 43.88773534 -30.42491868 42.4442033 -29 41 C-33.53378405 35.42992246 -38.51897063 30.4273504 -43.68041992 25.44458008 C-45.15656402 23.99920233 -46.5828959 22.50330776 -48 21 C-48 20.34 -48 19.68 -48 19 C-35.17158929 9.44459134 -16.31931333 0 0 0 Z M-20.984375 77.26953125 C-29.00737441 88.13789673 -30.0733929 99.92040045 -29 113 C-26.49780411 125.12492636 -18.80768742 134.7599904 -9 142 C2.30613316 148.28950454 14.60611251 149.93859707 27.3125 147.31640625 C38.80553435 143.38200102 48.6924065 135.74341212 54.640625 125.05078125 C59.77606293 113.99778409 61.39791401 100.68908284 57.375 88.9375 C51.85336225 76.37960858 43.17489937 67.21919973 30.4453125 61.875 C11.1158043 54.95837087 -8.03933968 62.31032086 -20.984375 77.26953125 Z " fill="#000000" transform="translate(211,182)"/>
<path d="M0 0 C4.61581142 2.18643699 6.72864085 4.49599804 9 9 C9.82885269 14.54808604 9.7240695 19.47140883 7.3125 24.5625 C4.21064779 27.8320199 1.61649202 29.75850523 -2.90234375 30.43359375 C-9.05071801 30.44150672 -13.31314296 30.4465054 -18 26 C-21.88937897 20.55860924 -21.79042609 15.48149391 -21 9 C-16.63929544 -0.20593186 -9.3488659 -1.1401056 0 0 Z " fill="#000000" transform="translate(232,271)"/>
</svg>
