<?xml version="1.0" standalone="no"?>
<!DOCTYPE svg PUBLIC "-//W3C//DTD SVG 20010904//EN"
 "http://www.w3.org/TR/2001/REC-SVG-20010904/DTD/svg10.dtd">
<svg version="1.0" xmlns="http://www.w3.org/2000/svg"
 width="512.000000pt" height="512.000000pt" viewBox="0 0 512.000000 512.000000"
 preserveAspectRatio="xMidYMid meet">

<g transform="translate(0.000000,512.000000) scale(0.100000,-0.100000)"
fill="#000000" stroke="none">
<path d="M1885 5111 c-11 -5 -29 -19 -40 -31 -18 -20 -20 -40 -25 -256 l-5
-235 -101 -43 c-507 -215 -917 -623 -1135 -1129 l-49 -112 -236 -5 -236 -5
-29 -33 -29 -32 0 -670 0 -670 29 -32 29 -33 278 -3 c302 -3 324 0 349 49 19
35 19 63 1 98 -24 46 -50 51 -276 51 l-210 0 0 540 0 540 210 0 c164 0 217 3
239 14 28 15 38 34 87 161 189 492 617 920 1109 1109 127 49 146 59 161 87 11
22 14 75 14 239 l0 210 540 0 540 0 0 -210 c0 -164 3 -217 14 -239 15 -28 34
-38 169 -91 95 -37 201 -89 288 -142 l65 -40 -18 -52 c-24 -70 -24 -187 1
-258 60 -175 216 -288 396 -288 290 0 491 286 394 560 -82 232 -366 343 -584
227 l-62 -33 -44 28 c-84 54 -229 129 -321 168 l-93 39 -5 236 -5 237 -33 29
-32 29 -663 -1 c-364 0 -671 -4 -682 -8z m2233 -903 c82 -39 132 -145 111
-237 -45 -202 -323 -233 -410 -46 -24 52 -24 129 1 180 23 49 36 64 76 93 64
44 141 48 222 10z"/>
<path d="M2576 4368 c-14 -13 -271 -458 -571 -990 -439 -779 -545 -975 -545
-1004 0 -26 8 -43 29 -65 l29 -29 476 0 c262 0 476 -1 476 -3 0 -1 -90 -272
-200 -602 -145 -434 -199 -608 -194 -627 7 -33 57 -78 87 -78 12 0 37 8 55 18
22 11 249 293 720 892 378 481 695 886 705 900 19 27 22 81 7 111 -27 49 -31
49 -615 49 l-547 0 6 28 c37 175 238 1297 238 1326 1 80 -98 126 -156 74z
m-152 -675 c-12 -55 -154 -841 -154 -855 0 -9 5 -29 12 -43 25 -55 24 -55 568
-55 300 0 500 -4 498 -9 -6 -19 -883 -1128 -886 -1121 -1 3 54 172 123 374 69
203 125 381 125 397 0 18 -11 41 -29 61 l-29 33 -460 5 -460 5 345 613 c191
336 347 612 349 612 1 0 0 -8 -2 -17z"/>
<path d="M4471 3286 c-47 -26 -63 -84 -37 -135 24 -46 50 -51 276 -51 l210 0
0 -540 0 -540 -210 0 c-164 0 -217 -3 -239 -14 -28 -15 -38 -34 -87 -161 -189
-492 -617 -920 -1109 -1109 -127 -49 -146 -59 -161 -87 -11 -22 -14 -75 -14
-239 l0 -210 -540 0 -540 0 0 210 c0 164 -3 217 -14 239 -15 28 -34 38 -169
91 -95 37 -201 89 -288 142 l-65 40 18 52 c24 70 24 187 -1 258 -60 175 -216
288 -396 288 -290 0 -491 -286 -394 -560 82 -233 366 -343 585 -226 l63 33 48
-32 c78 -51 201 -116 308 -162 l100 -42 5 -235 5 -236 28 -27 27 -28 675 -3
674 -2 33 29 33 29 5 236 5 236 112 49 c506 218 914 628 1129 1135 l43 101
235 5 236 5 27 28 28 27 0 681 0 681 -33 29 -32 29 -278 0 c-211 -1 -283 -4
-301 -14z m-3283 -1982 c133 -55 174 -233 80 -344 -48 -57 -134 -85 -210 -69
-166 36 -229 244 -110 365 60 60 163 81 240 48z"/>
<path d="M3865 2002 c-22 -14 -38 -40 -64 -103 -61 -152 -141 -270 -247 -368
-138 -126 -134 -122 -134 -158 0 -64 33 -102 90 -103 46 0 83 24 181 117 99
94 187 210 240 316 91 181 102 243 50 289 -37 33 -73 36 -116 10z"/>
<path d="M3147 1289 c-22 -13 -47 -61 -47 -91 0 -33 27 -68 66 -84 29 -12 39
-12 68 0 70 29 87 101 37 155 -23 24 -37 31 -68 31 -21 0 -46 -5 -56 -11z"/>
</g>
</svg>
