<?xml version="1.0" standalone="no"?>
<!DOCTYPE svg PUBLIC "-//W3C//DTD SVG 20010904//EN"
 "http://www.w3.org/TR/2001/REC-SVG-20010904/DTD/svg10.dtd">
<svg version="1.0" xmlns="http://www.w3.org/2000/svg"
 width="512.000000pt" height="512.000000pt" viewBox="0 0 512.000000 512.000000"
 preserveAspectRatio="xMidYMid meet">

<g transform="translate(0.000000,512.000000) scale(0.100000,-0.100000)"
fill="#000000" stroke="none">
<path d="M1163 4736 c-74 -24 -125 -62 -227 -165 -93 -95 -98 -103 -92 -133 8
-41 23 -56 63 -64 30 -6 39 0 140 98 113 108 148 128 227 128 52 0 92 -19 196
-96 l92 -67 -619 -619 c-340 -340 -622 -618 -628 -618 -14 0 -137 173 -152
213 -6 17 -12 50 -12 72 -1 82 24 114 334 425 320 321 322 324 270 375 -51 52
-54 51 -383 -277 -358 -358 -367 -371 -367 -523 0 -76 4 -98 26 -145 26 -54
386 -553 417 -577 36 -29 71 -16 143 54 l70 67 41 -42 42 -41 -55 -58 c-94
-99 -157 -206 -199 -338 -34 -106 -39 -310 -11 -427 64 -270 253 -488 511
-591 36 -14 82 -28 102 -32 35 -7 38 -10 54 -64 32 -110 75 -182 164 -272 65
-66 102 -94 156 -120 l71 -34 5 -160 c5 -184 17 -225 79 -279 104 -89 257 -68
330 45 32 48 33 49 83 49 49 0 52 -2 71 -37 28 -51 95 -100 149 -108 96 -15
165 15 226 98 33 44 38 47 82 47 42 0 49 -3 62 -28 35 -68 123 -122 200 -122
76 0 170 57 196 120 12 28 16 30 66 30 48 0 55 -3 68 -28 66 -128 234 -160
345 -66 72 62 75 79 81 438 l5 319 53 13 c70 18 153 60 200 100 27 23 53 34
88 39 134 18 312 87 375 146 36 34 39 76 6 107 -32 30 -59 28 -131 -13 -35
-19 -89 -44 -120 -55 -53 -18 -57 -18 -50 -2 4 9 14 44 22 77 7 33 15 65 17
71 2 6 27 25 57 42 96 54 179 152 225 265 31 75 42 221 23 310 -17 82 -73 187
-133 252 l-53 55 53 52 53 52 41 -39 c22 -22 60 -69 84 -105 82 -124 115 -234
115 -385 0 -122 -24 -218 -81 -323 -39 -74 -45 -96 -33 -127 10 -26 62 -44 94
-34 49 17 123 167 155 313 24 109 17 311 -15 411 -42 132 -105 239 -199 338
l-55 58 42 41 41 42 70 -67 c72 -70 107 -83 143 -54 31 24 391 523 417 577 22
46 26 69 26 145 0 160 14 142 -562 716 -550 547 -537 537 -674 547 -70 5 -159
-15 -208 -46 -60 -38 -517 -376 -533 -394 -35 -40 -24 -74 49 -149 l67 -70
-254 -254 -255 -255 -185 0 -185 0 -255 255 -254 254 67 70 c73 75 84 109 50
149 -35 39 -515 384 -571 409 -68 32 -183 41 -249 19z m2761 -148 c35 -10 111
-81 520 -487 508 -506 527 -527 525 -616 0 -22 -6 -55 -12 -72 -15 -40 -138
-213 -152 -213 -6 0 -288 278 -628 618 l-619 619 93 68 c51 37 107 74 123 81
39 17 96 17 150 2z m-2114 -335 c4 -4 -1301 -1313 -1310 -1313 -5 0 -82 107
-89 123 -2 5 284 297 634 647 l638 639 61 -47 c34 -25 63 -47 66 -49z m2900
-1185 c0 -10 -83 -127 -90 -128 -3 0 -300 295 -660 655 -617 617 -654 656
-635 669 11 8 40 30 65 49 l45 35 638 -636 c350 -350 637 -640 637 -644z
m-2708 675 l238 -238 -492 -492 c-271 -271 -497 -493 -503 -493 -6 0 -116 106
-245 235 l-235 235 57 57 58 57 117 -116 c65 -63 134 -123 153 -133 47 -25
144 -25 190 -1 83 44 124 110 124 201 0 82 -17 110 -152 248 l-116 117 66 67
67 67 126 -122 c111 -107 132 -123 181 -138 185 -54 344 139 257 311 -9 16
-68 83 -131 148 l-116 117 54 55 c30 30 57 55 60 55 2 0 112 -107 242 -237z
m1418 182 l54 -55 -116 -117 c-150 -153 -173 -199 -148 -301 29 -122 152 -193
274 -158 49 15 70 31 181 138 l126 122 67 -67 66 -67 -116 -117 c-135 -138
-152 -166 -152 -248 0 -91 41 -157 124 -201 46 -24 143 -24 190 1 19 10 88 70
153 133 l117 116 58 -57 57 -57 -235 -235 c-129 -129 -239 -235 -245 -235 -5
0 -232 222 -502 492 l-493 493 237 237 c131 131 240 238 243 238 3 0 30 -25
60 -55z m-1768 -273 c108 -109 129 -143 108 -182 -10 -20 -47 -40 -72 -40 -6
0 -64 53 -130 117 l-118 117 47 48 c26 26 50 48 53 48 3 0 54 -48 112 -108z
m1981 60 l47 -48 -118 -117 c-66 -64 -124 -117 -130 -117 -49 0 -88 44 -77 88
6 23 209 242 225 242 3 0 27 -22 53 -48z m-367 -803 l521 -521 -26 -84 c-14
-46 -28 -84 -31 -84 -3 0 -216 154 -475 342 -258 187 -495 352 -525 367 -49
23 -67 26 -170 26 -189 0 -171 13 -678 -484 -233 -229 -428 -417 -433 -419 -4
-2 -32 72 -62 165 l-54 168 521 523 521 522 185 0 185 0 521 -521z m-2022 246
c80 -78 92 -110 51 -150 -42 -43 -59 -34 -187 92 l-118 117 47 48 47 48 65
-62 c35 -35 78 -76 95 -93z m2839 107 l47 -48 -118 -117 c-128 -126 -145 -135
-187 -92 -29 28 -31 51 -9 85 19 28 206 220 214 220 3 0 27 -22 53 -48z
m-1413 -473 c101 -45 160 -138 160 -249 -1 -156 -115 -270 -270 -270 -155 0
-269 114 -270 270 0 155 114 270 270 270 44 0 80 -7 110 -21z m-1765 -149 l51
-50 -51 -54 c-57 -60 -105 -144 -129 -225 -18 -62 -21 -203 -5 -271 33 -144
148 -284 288 -353 l86 -42 -14 -71 c-15 -83 -11 -82 -126 -29 -185 85 -320
246 -376 450 -18 67 -21 97 -16 199 5 139 25 212 88 318 36 61 133 178 147
178 4 0 29 -23 57 -50z m2357 -270 l146 -105 -72 -25 c-39 -14 -94 -39 -121
-55 -29 -17 -207 -183 -430 -401 l-380 -372 -7 84 c-13 173 -71 297 -193 419
-121 121 -266 184 -425 185 l-65 0 210 204 210 203 7 -36 c28 -157 148 -292
297 -335 253 -74 522 106 539 361 l5 73 66 -48 c37 -26 133 -94 213 -152z
m-2007 -228 l67 -213 -38 -42 c-22 -24 -48 -56 -59 -71 l-20 -28 -57 22 c-80
30 -159 104 -200 188 -31 63 -33 73 -33 172 0 96 3 110 29 161 15 31 49 78 74
103 l46 47 62 -63 61 -63 68 -213z m2865 274 c67 -78 93 -157 89 -269 -5 -105
-44 -191 -120 -262 l-52 -48 -22 60 c-27 76 -62 136 -112 192 l-39 45 36 113
c34 106 40 117 95 173 66 66 63 66 125 -4z m-525 -312 c356 -92 406 -574 76
-737 -61 -30 -72 -32 -171 -32 -92 0 -112 3 -160 26 -80 38 -154 109 -191 185
-111 224 11 493 251 558 72 19 123 19 195 0z m-1693 -174 c240 -74 387 -320
337 -562 -48 -229 -245 -389 -479 -389 -310 0 -542 282 -479 583 58 278 351
452 621 368z m1058 -260 c1 -87 56 -220 123 -296 l39 -44 -294 0 -293 1 205
198 c130 127 208 195 212 188 4 -7 8 -28 8 -47z m-360 -745 l0 -255 -40 0 -40
0 0 255 0 255 40 0 40 0 0 -255z m295 -58 l0 -309 -24 -19 c-32 -26 -67 -24
-96 6 l-25 24 0 306 0 306 73 -3 72 -3 0 -308z m235 58 l0 -255 -40 0 -40 0 0
255 0 255 40 0 40 0 0 -255z m298 -25 c1 -151 0 -290 -3 -308 -12 -67 -76 -94
-122 -50 l-23 21 0 309 0 309 73 -3 72 -3 3 -275z m-1058 -35 l0 -296 -25 -24
c-13 -14 -36 -25 -50 -25 -14 0 -37 11 -50 25 l-25 24 0 223 0 223 72 72 c40
40 74 73 75 73 2 0 3 -133 3 -295z m-300 -80 l0 -115 -40 0 -40 0 0 98 0 98
33 17 c17 8 35 16 40 16 4 1 7 -51 7 -114z m-230 -88 c0 -120 -2 -133 -22
-154 -38 -41 -98 -26 -117 28 -11 31 -16 241 -6 250 2 3 36 5 75 6 l70 1 0
-131z"/>
<path d="M3427 1936 c-94 -35 -150 -115 -150 -215 0 -126 96 -221 223 -221
184 0 286 196 184 352 -49 76 -171 116 -257 84z m106 -147 c70 -32 48 -139
-28 -139 -75 0 -106 79 -51 127 30 26 44 28 79 12z"/>
<path d="M1664 1666 c-146 -68 -174 -268 -52 -371 46 -39 89 -55 148 -55 190
0 292 213 175 367 -35 44 -115 83 -175 83 -26 0 -66 -10 -96 -24z m143 -146
c30 -27 36 -55 21 -87 -40 -85 -173 -28 -138 58 22 51 78 66 117 29z"/>
</g>
</svg>
