<?xml version="1.0" standalone="no"?>
<!DOCTYPE svg PUBLIC "-//W3C//DTD SVG 20010904//EN"
 "http://www.w3.org/TR/2001/REC-SVG-20010904/DTD/svg10.dtd">
<svg version="1.0" xmlns="http://www.w3.org/2000/svg"
 width="512.000000pt" height="512.000000pt" viewBox="0 0 512.000000 512.000000"
 preserveAspectRatio="xMidYMid meet">

<g transform="translate(0.000000,512.000000) scale(0.100000,-0.100000)"
fill="#000000" stroke="none">
<path d="M1170 4290 l0 -120 160 0 160 0 0 120 0 120 -160 0 -160 0 0 -120z"/>
<path d="M3630 4290 l0 -120 160 0 160 0 0 120 0 120 -160 0 -160 0 0 -120z"/>
<path d="M600 2490 l0 -1250 1960 0 1960 0 0 1250 0 1250 -1960 0 -1960 0 0
-1250z m883 730 c280 -106 410 -420 283 -685 -85 -178 -254 -285 -450 -285
-138 0 -248 43 -342 132 -291 275 -170 744 219 853 74 21 215 14 290 -15z
m2440 15 c290 -75 452 -373 356 -652 -52 -152 -187 -277 -344 -319 -27 -8 -86
-14 -131 -14 -141 0 -252 46 -351 145 -250 250 -173 662 150 810 99 45 218 57
320 30z"/>
<path d="M1213 3076 c-152 -50 -255 -205 -239 -359 12 -118 86 -225 191 -277
43 -22 64 -25 150 -25 85 0 107 4 145 24 262 136 257 497 -8 619 -67 31 -176
39 -239 18z m177 -186 l0 -60 65 0 65 0 0 -80 0 -79 -62 -3 -63 -3 -3 -63 -3
-63 -77 3 -77 3 -3 63 -3 62 -59 0 -60 0 0 80 0 80 60 0 60 0 0 60 0 60 80 0
80 0 0 -60z"/>
<path d="M3724 3081 c-171 -44 -286 -219 -255 -388 21 -111 86 -199 186 -251
44 -24 61 -27 150 -27 85 0 107 3 148 24 67 33 134 101 165 169 38 83 38 192
-2 279 -34 74 -103 144 -173 175 -52 22 -167 33 -219 19z m286 -331 l0 -80
-205 0 -205 0 0 80 0 80 205 0 205 0 0 -80z"/>
<path d="M320 1035 l0 -325 2240 0 2240 0 0 325 0 325 -60 0 -60 0 0 -140 0
-140 -2120 0 -2120 0 0 140 0 140 -60 0 -60 0 0 -325z"/>
</g>
</svg>
