<?xml version="1.0" standalone="no"?>
<!DOCTYPE svg PUBLIC "-//W3C//DTD SVG 20010904//EN"
 "http://www.w3.org/TR/2001/REC-SVG-20010904/DTD/svg10.dtd">
<svg version="1.0" xmlns="http://www.w3.org/2000/svg"
 width="512.000000pt" height="512.000000pt" viewBox="0 0 512.000000 512.000000"
 preserveAspectRatio="xMidYMid meet">

<g transform="translate(0.000000,512.000000) scale(0.100000,-0.100000)"
fill="#000000" stroke="none">
<path d="M4112 4863 c-61 -21 -145 -102 -172 -165 -28 -64 -32 -174 -8 -228
15 -34 14 -39 -15 -113 l-30 -77 -36 7 c-154 32 -285 -41 -345 -193 -46 -114
-35 -138 80 -180 41 -15 73 -28 71 -30 -2 -2 -30 1 -63 6 -91 15 -139 13 -157
-8 -17 -19 -22 -57 -11 -86 3 -8 95 -70 205 -137 109 -67 198 -124 196 -125
-2 -2 -99 12 -216 31 -117 19 -225 35 -241 35 -50 0 -83 -54 -64 -104 3 -8 95
-70 205 -137 109 -67 197 -124 196 -126 -2 -2 -108 13 -234 34 -220 35 -232
36 -257 20 -35 -24 -44 -62 -20 -94 11 -14 104 -77 208 -141 103 -64 184 -118
179 -119 -5 -2 -107 12 -226 32 -119 19 -223 35 -230 35 -7 0 -23 -9 -35 -20
-28 -26 -29 -80 -3 -104 11 -10 100 -67 197 -127 98 -60 176 -109 173 -109 -4
0 -99 36 -213 80 -113 44 -218 80 -231 80 -102 0 -174 -103 -162 -232 10 -113
77 -193 204 -245 31 -13 58 -25 60 -27 2 -2 1 -15 -3 -30 l-6 -26 -273 0 -273
0 -4 103 c-5 118 -23 165 -85 216 -52 43 -88 51 -235 51 l-128 0 0 208 c0 232
-8 283 -63 386 -66 125 -210 230 -351 255 -38 7 -250 11 -575 11 -564 0 -587
-2 -699 -59 -120 -61 -213 -172 -255 -306 l-22 -70 0 -1185 c0 -1121 1 -1188
18 -1245 53 -173 189 -305 362 -351 39 -11 175 -14 606 -14 603 0 600 0 714
58 73 37 176 144 212 222 45 96 53 150 53 370 l0 200 123 0 c148 0 199 14 257
72 50 50 70 114 70 220 l0 78 899 0 899 0 7 -68 c13 -126 73 -220 173 -269
120 -59 272 -28 361 73 76 87 76 83 76 664 l0 515 -24 53 c-30 66 -113 144
-177 166 -104 35 -220 13 -299 -56 -67 -59 -94 -111 -107 -212 l-12 -86 -176
0 -176 0 4 58 c5 68 -12 109 -58 144 -21 15 -30 30 -30 50 0 15 -8 36 -18 46
-9 9 -102 68 -205 131 -103 63 -185 116 -183 118 2 3 101 -12 220 -31 119 -20
227 -36 241 -36 28 0 65 43 65 74 0 35 -24 53 -223 175 -103 63 -185 117 -183
119 3 2 106 -13 230 -33 125 -20 235 -33 246 -30 29 9 52 58 41 87 -12 33 -27
43 -211 156 -91 56 -173 107 -184 115 -13 10 53 2 220 -25 236 -39 238 -39
263 -20 32 23 40 76 16 101 -8 10 -103 72 -210 137 -107 65 -188 120 -181 122
8 2 106 -11 217 -27 221 -34 251 -36 279 -21 19 10 64 119 75 181 16 91 -41
218 -121 268 l-42 27 32 77 c27 66 37 81 76 105 52 33 91 76 123 136 32 60 32
203 -1 263 -35 67 -79 110 -144 143 -52 25 -72 30 -132 29 -39 0 -90 -7 -114
-16z m164 -172 c36 -22 59 -70 50 -105 -3 -14 -17 -38 -30 -53 -20 -23 -32
-28 -69 -28 -107 0 -145 130 -55 185 41 25 65 25 104 1z m-288 -612 c103 -39
204 -80 225 -91 46 -23 77 -71 77 -118 0 -72 5 -73 -287 40 -147 57 -287 111
-310 119 -49 18 -52 27 -21 66 23 30 70 54 106 55 13 0 107 -32 210 -71z
m-3248 -979 c0 -121 -3 -220 -7 -220 -5 0 -104 32 -220 71 -164 54 -213 75
-213 87 0 38 59 139 107 183 81 76 137 97 256 98 l77 1 0 -220z m1011 189 c75
-36 130 -87 166 -156 60 -114 74 -100 -176 -182 -120 -39 -221 -71 -225 -71
-3 0 -6 99 -6 221 l0 221 93 -4 c73 -3 103 -9 148 -29z m-1221 -497 l205 -69
3 -171 c2 -134 0 -172 -10 -172 -7 0 -109 32 -225 71 l-213 71 0 175 c0 161 1
174 18 169 9 -3 109 -37 222 -74z m1430 -100 l0 -178 -217 -67 c-120 -37 -221
-68 -226 -67 -4 0 -6 77 -5 172 l3 172 220 72 c121 40 221 73 223 73 1 1 2
-79 2 -177z m1455 -193 c214 -83 405 -157 423 -165 33 -13 33 -14 17 -43 -21
-41 -43 -51 -116 -51 -55 0 -94 12 -338 106 -359 138 -357 137 -381 176 -23
37 -28 128 -8 128 7 0 188 -68 403 -151z m-2890 -209 l215 -71 0 -175 c0 -162
-1 -175 -17 -170 -10 3 -110 37 -223 74 l-205 69 -3 171 c-2 113 1 172 8 172
6 0 107 -32 225 -70z m1445 -99 c0 -122 -3 -172 -12 -177 -7 -4 -109 -38 -228
-75 l-215 -67 -3 171 c-1 93 0 172 2 174 6 6 427 141 444 142 9 1 12 -39 12
-168z m1075 -114 c-3 -7 -26 -23 -50 -36 -88 -47 -144 -137 -153 -247 -4 -57
3 -92 33 -166 7 -17 -4 -18 -154 -18 l-161 0 0 240 0 240 245 0 c192 0 243 -3
240 -13z m1315 -227 l0 -240 -474 0 -474 0 14 29 c8 16 20 55 27 86 10 47 9
66 -7 125 l-18 70 32 83 31 84 435 2 434 1 0 -240z m-1166 16 c118 -49 63
-222 -61 -190 -91 23 -103 147 -19 188 38 19 39 19 80 2z m-2664 -84 l205 -67
3 -172 c1 -95 -1 -173 -5 -173 -4 0 -105 33 -225 72 l-218 73 0 173 c0 161 1
173 18 168 9 -4 109 -37 222 -74z m1440 -102 l0 -168 -62 -21 c-145 -46 -386
-121 -392 -121 -3 0 -6 78 -6 173 l0 173 223 71 c122 38 225 68 230 66 4 -2 7
-80 7 -173z m-1440 -398 l205 -69 3 -171 c2 -134 0 -172 -10 -172 -7 0 -109
32 -225 71 l-213 71 0 175 c0 161 1 174 18 169 9 -3 109 -37 222 -74z m1440
-101 l0 -168 -227 -75 -228 -74 -3 170 c-1 93 1 173 5 177 9 8 421 138 441
139 9 0 12 -40 12 -169z m-1230 -637 l0 -164 -58 0 c-163 0 -297 81 -360 219
-20 44 -26 76 -30 158 l-5 102 227 -75 226 -76 0 -164z m1230 264 c-1 -192
-74 -323 -218 -391 -51 -24 -82 -31 -153 -35 l-89 -5 0 166 0 166 213 70 c116
38 220 69 230 70 14 1 17 -7 17 -41z"/>
</g>
</svg>
