<?xml version="1.0" standalone="no"?>
<!DOCTYPE svg PUBLIC "-//W3C//DTD SVG 20010904//EN"
 "http://www.w3.org/TR/2001/REC-SVG-20010904/DTD/svg10.dtd">
<svg version="1.0" xmlns="http://www.w3.org/2000/svg"
 width="512.000000pt" height="512.000000pt" viewBox="0 0 512.000000 512.000000"
 preserveAspectRatio="xMidYMid meet">

<g transform="translate(0.000000,512.000000) scale(0.100000,-0.100000)"
fill="#000000" stroke="none">
<path d="M1260 5109 c-30 -12 -925 -902 -946 -941 -22 -41 -18 -109 9 -149 43
-65 121 -85 189 -51 l36 19 114 -114 113 -114 -171 -167 c-152 -149 -174 -175
-208 -243 -70 -145 -67 -86 -64 -1422 l3 -1202 28 -88 c95 -306 323 -523 637
-609 l85 -23 1490 0 1490 0 85 23 c167 44 323 135 436 253 110 116 178 240
214 391 19 81 20 119 20 1888 0 1780 0 1806 -20 1890 -75 311 -328 559 -657
643 -88 22 -90 22 -943 22 l-855 0 -81 -27 c-119 -41 -182 -87 -394 -289
l-191 -182 -126 125 -125 125 16 31 c63 122 -58 260 -184 211z m2788 -304
c202 -41 375 -184 444 -370 l23 -60 3 -1790 c2 -1261 -1 -1806 -9 -1843 -30
-148 -152 -298 -301 -372 -150 -73 -62 -70 -1624 -70 -929 0 -1420 4 -1460 10
-217 39 -388 180 -466 386 l-23 59 -3 1179 c-3 1301 -5 1241 60 1320 29 35
1402 1347 1541 1473 106 96 61 92 960 92 661 1 789 -1 855 -14z m-2590 -395
c-6 -12 -459 -440 -466 -440 -4 0 -59 52 -122 115 l-115 115 230 230 230 230
122 -122 c68 -68 122 -125 121 -128z"/>
<path d="M2155 4339 c-37 -10 -761 -693 -787 -742 -36 -64 -14 -140 55 -191
l28 -21 1197 0 1197 0 65 24 c81 30 159 81 206 135 52 59 104 173 117 255 38
249 -150 501 -403 541 -81 12 -1632 12 -1675 -1z m1647 -299 c73 -21 138 -102
138 -175 0 -72 -64 -154 -138 -175 -25 -8 -332 -10 -980 -8 l-943 3 193 182
193 183 750 0 c485 0 763 -4 787 -10z"/>
<path d="M1604 3061 c-66 -40 -96 -109 -75 -173 8 -23 151 -173 486 -508 l475
-475 -474 -475 c-518 -519 -510 -510 -487 -597 14 -50 66 -99 116 -109 78 -14
89 -6 590 496 l470 470 480 -479 c532 -531 507 -512 600 -476 71 27 105 91 90
172 -6 34 -62 94 -483 515 l-477 478 477 477 c514 515 500 499 484 587 -17 91
-125 142 -209 100 -18 -9 -242 -226 -500 -482 l-467 -467 -473 472 c-259 260
-485 477 -500 483 -43 15 -88 12 -123 -9z"/>
</g>
</svg>
