<?xml version="1.0" standalone="no"?>
<!DOCTYPE svg PUBLIC "-//W3C//DTD SVG 20010904//EN"
 "http://www.w3.org/TR/2001/REC-SVG-20010904/DTD/svg10.dtd">
<svg version="1.0" xmlns="http://www.w3.org/2000/svg"
 width="512.000000pt" height="512.000000pt" viewBox="0 0 512.000000 512.000000"
 preserveAspectRatio="xMidYMid meet">

<g transform="translate(0.000000,512.000000) scale(0.100000,-0.100000)"
fill="#000000" stroke="none">
<path d="M1532 4863 c-18 -9 -45 -32 -60 -51 l-27 -35 0 -457 0 -457 29 -37
c40 -53 78 -66 191 -66 l95 0 0 -80 0 -80 -56 0 c-87 0 -133 -18 -189 -75 -57
-56 -75 -102 -75 -188 l0 -55 -108 -4 c-100 -3 -111 -5 -144 -30 -61 -47 -68
-74 -68 -271 l0 -175 -108 -4 c-100 -3 -111 -5 -144 -30 -59 -45 -70 -81 -66
-222 3 -117 4 -124 32 -160 40 -53 78 -66 191 -66 l95 0 0 -79 0 -79 -74 -4
c-56 -2 -82 -9 -103 -24 -42 -31 -70 -78 -78 -130 -6 -42 -10 -47 -50 -65
l-44 -19 -44 31 c-50 35 -109 46 -159 30 -22 -7 -70 -47 -130 -109 -76 -76
-98 -105 -103 -135 -10 -52 0 -95 34 -146 29 -43 29 -44 13 -87 -16 -42 -19
-44 -65 -50 -53 -7 -99 -34 -131 -77 -19 -26 -21 -42 -21 -177 0 -135 2 -151
21 -177 31 -42 78 -70 130 -78 42 -6 47 -10 65 -51 l20 -44 -31 -44 c-36 -50
-47 -108 -31 -158 7 -22 47 -70 109 -130 76 -76 105 -98 135 -103 52 -10 95 0
146 34 43 29 44 29 87 13 40 -15 43 -18 49 -64 8 -53 35 -100 78 -132 26 -19
42 -21 177 -21 135 0 151 2 177 21 42 31 70 78 78 130 6 42 10 47 50 65 l44
19 44 -31 c50 -35 109 -46 159 -30 22 7 70 47 130 109 76 76 98 105 103 135
10 52 0 95 -34 146 -29 43 -29 44 -13 86 13 37 20 44 50 49 29 4 41 0 68 -24
19 -16 48 -32 66 -35 18 -3 191 -5 385 -3 337 3 353 4 379 24 61 45 69 66 72
192 2 67 -1 132 -7 154 -14 44 -72 95 -118 104 l-33 6 0 79 0 79 696 0 c518 0
707 3 738 12 55 16 138 99 154 154 7 24 12 100 12 177 l0 135 109 4 c92 2 114
6 137 24 60 44 69 67 72 184 l4 108 108 4 c117 3 140 12 184 72 18 23 21 45
24 150 4 143 -6 178 -64 222 -35 27 -44 29 -146 32 l-108 4 0 94 c0 112 -13
150 -66 190 -35 27 -44 29 -146 32 l-108 4 0 135 c0 169 -10 203 -75 268 -66
67 -98 75 -282 75 l-149 0 -138 348 c-77 191 -148 362 -159 381 -34 57 -80 71
-243 71 l-141 0 -83 200 c-45 109 -89 208 -97 220 -8 11 -32 29 -53 40 -38 19
-60 20 -687 20 -579 0 -652 -2 -681 -17z m1459 -543 l167 -400 -139 0 -139 0
0 103 c0 81 -4 108 -18 132 -18 29 -18 31 1 74 29 67 21 166 -19 223 -106 151
-313 148 -409 -7 -27 -43 -30 -57 -30 -127 l0 -78 -85 0 -85 0 0 78 c0 70 -3
84 -30 127 -19 31 -49 61 -79 80 -44 27 -58 30 -126 30 -68 0 -82 -3 -126 -30
-85 -53 -129 -156 -110 -258 10 -51 59 -119 110 -151 l46 -29 0 -83 0 -84
-160 0 -160 0 0 400 0 400 613 0 612 0 166 -400z m-957 69 c58 -27 55 -115 -5
-139 -63 -26 -125 36 -100 99 19 44 60 60 105 40z m640 0 c58 -27 55 -115 -5
-139 -63 -26 -125 36 -100 99 19 44 60 60 105 40z m-114 -869 l0 -240 -160 0
-160 0 0 240 0 240 160 0 160 0 0 -240z m-480 -159 l0 -79 -35 -6 c-43 -8 -94
-50 -111 -93 -19 -44 -19 -242 0 -286 17 -43 68 -85 111 -93 l35 -6 0 -238 0
-238 -35 -6 c-43 -8 -94 -50 -111 -93 -19 -44 -19 -242 0 -286 17 -43 68 -85
111 -93 l35 -6 0 -79 0 -79 -85 0 -85 0 0 30 c0 47 -21 77 -117 171 -97 96
-117 109 -162 109 l-31 0 0 690 c0 485 3 696 11 714 6 13 21 29 33 34 12 6
108 11 229 11 l207 1 0 -79z m960 -801 l0 -880 -160 0 -160 0 0 79 0 79 35 6
c43 8 94 50 111 93 19 44 19 242 0 286 -17 43 -68 85 -111 93 l-35 6 0 238 0
238 35 6 c43 8 94 50 111 93 9 21 14 72 14 143 0 71 -5 122 -14 143 -17 43
-68 85 -111 93 l-35 6 0 79 0 79 160 0 160 0 0 -880z m640 800 l0 -80 -240 0
-240 0 0 80 0 80 240 0 240 0 0 -80z m433 69 c14 -6 30 -22 36 -36 16 -34 16
-1632 0 -1666 -18 -39 -50 -47 -184 -47 l-125 0 0 880 0 880 125 0 c69 0 135
-5 148 -11z m-2673 -870 l0 -560 -32 3 c-27 3 -33 9 -42 41 -11 36 -59 97 -77
97 -5 0 -9 200 -9 490 l0 490 80 0 80 0 0 -561z m2240 481 l0 -80 -240 0 -240
0 0 80 0 80 240 0 240 0 0 -80z m800 -480 l0 -400 -80 0 -80 0 0 400 0 400 80
0 80 0 0 -400z m-1920 0 l0 -240 -160 0 -160 0 0 240 0 240 160 0 160 0 0
-240z m1120 160 l0 -80 -240 0 -240 0 0 80 0 80 240 0 240 0 0 -80z m-2560
-160 l0 -80 -80 0 -80 0 0 80 0 80 80 0 80 0 0 -80z m3680 0 l0 -80 -80 0 -80
0 0 80 0 80 80 0 80 0 0 -80z m-1120 -160 l0 -80 -240 0 -240 0 0 80 0 80 240
0 240 0 0 -80z m0 -320 l0 -80 -240 0 -240 0 0 80 0 80 240 0 240 0 0 -80z
m-2465 -117 c3 -21 16 -58 28 -83 19 -38 32 -50 92 -79 43 -21 91 -36 123 -39
46 -4 59 -1 103 27 28 17 53 31 57 31 9 0 122 -113 122 -122 0 -3 -14 -29 -31
-57 -28 -44 -31 -57 -27 -103 3 -32 18 -80 39 -123 29 -60 41 -73 79 -92 25
-12 62 -25 83 -28 l37 -6 0 -89 0 -89 -37 -6 c-21 -3 -58 -16 -83 -28 -38 -19
-50 -32 -79 -92 -21 -43 -36 -91 -39 -123 -4 -46 -1 -59 27 -103 17 -28 31
-53 31 -57 0 -9 -113 -122 -122 -122 -3 0 -29 14 -57 31 -44 28 -57 31 -103
27 -32 -3 -80 -18 -123 -39 -60 -29 -73 -41 -92 -79 -12 -25 -25 -62 -28 -82
l-6 -38 -89 0 -89 0 -6 38 c-3 20 -16 57 -28 82 -19 38 -32 50 -92 79 -43 21
-91 36 -123 39 -46 4 -59 1 -103 -27 -28 -17 -54 -31 -57 -31 -9 0 -122 113
-122 122 0 4 14 29 31 57 28 44 31 57 27 103 -3 32 -18 80 -39 123 -29 60 -41
73 -79 92 -25 12 -62 25 -82 28 l-38 6 0 89 0 89 38 6 c20 3 57 16 82 28 38
19 50 32 79 92 21 43 36 91 39 123 4 46 1 59 -27 103 -17 28 -31 53 -31 57 0
9 113 122 122 122 3 0 29 -14 57 -31 44 -28 57 -31 103 -27 33 3 79 18 122 39
58 28 73 41 92 79 13 25 26 62 29 83 l6 37 89 0 89 0 6 -37z m1345 -363 l0
-240 -160 0 -160 0 0 240 0 240 160 0 160 0 0 -240z m1120 160 l0 -80 -240 0
-240 0 0 80 0 80 240 0 240 0 0 -80z m-1600 -320 c0 -44 -3 -80 -6 -80 -3 0
-17 14 -31 30 -31 38 -65 55 -121 65 -33 5 -46 13 -57 36 l-16 29 116 0 115 0
0 -80z"/>
<path d="M980 1744 c-195 -51 -355 -212 -405 -409 -75 -294 112 -604 410 -680
294 -75 604 112 680 410 75 294 -112 604 -410 680 -74 19 -202 18 -275 -1z
m304 -182 c89 -42 149 -100 191 -186 166 -335 -184 -695 -521 -537 -89 41
-147 99 -192 189 -35 72 -37 81 -37 171 0 87 3 102 32 163 40 85 97 147 172
186 78 42 122 52 213 48 61 -3 92 -11 142 -34z"/>
<path d="M1042 1427 c-53 -17 -128 -90 -146 -144 -33 -97 -15 -175 59 -248
102 -103 243 -101 338 5 91 101 89 235 -6 328 -66 65 -158 87 -245 59z m129
-176 c16 -16 29 -39 29 -51 0 -28 -52 -80 -80 -80 -28 0 -80 52 -80 80 0 12
13 35 29 51 37 37 65 37 102 0z"/>
</g>
</svg>
