<?xml version="1.0" standalone="no"?>
<!DOCTYPE svg PUBLIC "-//W3C//DTD SVG 20010904//EN"
 "http://www.w3.org/TR/2001/REC-SVG-20010904/DTD/svg10.dtd">
<svg version="1.0" xmlns="http://www.w3.org/2000/svg"
 width="512.000000pt" height="512.000000pt" viewBox="0 0 512.000000 512.000000"
 preserveAspectRatio="xMidYMid meet">

<g transform="translate(0.000000,512.000000) scale(0.100000,-0.100000)"
fill="#000000" stroke="none">
<path d="M950 5007 c-50 -16 -136 -103 -149 -152 -7 -26 -11 -208 -11 -531 l0
-490 28 -55 c33 -66 93 -113 162 -128 80 -17 356 -14 419 5 64 19 127 73 155
134 18 39 21 70 24 243 l4 197 143 0 142 0 6 -58 c5 -66 32 -124 74 -164 36
-35 109 -68 151 -68 18 0 40 -8 52 -20 19 -19 20 -33 20 -252 0 -268 5 -285
83 -354 50 -44 102 -64 166 -64 l41 0 0 -1180 0 -1180 -439 0 -439 0 -4 198
c-3 172 -6 203 -24 242 -28 61 -91 115 -155 134 -72 22 -364 22 -435 1 -66
-19 -121 -67 -150 -129 l-24 -51 0 -490 c0 -323 4 -504 11 -530 14 -53 99
-136 155 -153 59 -17 406 -16 457 2 57 21 100 58 132 117 29 54 29 55 33 257
l4 202 978 0 978 0 4 -202 c4 -202 4 -203 33 -257 32 -59 75 -96 132 -117 58
-20 404 -19 466 2 56 19 131 97 147 152 6 23 10 225 10 527 l0 490 -24 51
c-29 62 -84 110 -150 129 -71 21 -363 21 -435 -1 -64 -19 -127 -73 -155 -134
-18 -39 -21 -70 -24 -242 l-4 -198 -439 0 -439 0 0 1180 0 1180 43 0 c97 0
188 58 228 145 16 35 19 68 19 273 0 219 1 233 20 252 12 12 34 20 53 20 41 0
114 33 150 68 42 40 69 98 74 164 l6 58 142 0 143 0 4 -197 c3 -173 6 -204 24
-243 28 -61 91 -115 155 -134 63 -19 339 -22 419 -5 69 15 129 62 163 128 l27
55 0 490 c0 303 -4 505 -10 528 -16 55 -91 133 -147 152 -62 21 -408 22 -466
2 -57 -21 -100 -58 -132 -117 -29 -54 -29 -55 -33 -256 l-4 -203 -144 0 -144
0 0 38 c0 96 -50 182 -132 227 l-53 30 -505 0 c-502 0 -505 0 -546 -22 -87
-47 -132 -115 -141 -214 l-6 -59 -142 0 -143 0 -4 203 c-4 201 -4 202 -33 256
-32 59 -75 96 -132 117 -48 17 -411 17 -463 1z m420 -206 c6 -13 10 -180 10
-474 0 -429 -1 -455 -19 -471 -16 -14 -40 -16 -187 -14 -168 3 -168 3 -181 28
-10 19 -12 126 -11 478 3 390 5 454 18 462 8 5 92 10 187 10 160 0 173 -1 183
-19z m2750 9 c13 -8 15 -72 18 -462 1 -352 -1 -459 -11 -478 -13 -25 -13 -25
-181 -28 -147 -2 -171 0 -187 14 -18 16 -19 42 -19 471 0 294 4 461 10 474 10
18 23 19 183 19 95 0 179 -5 187 -10z m-1089 -290 c18 -10 19 -23 19 -184 0
-196 1 -192 -77 -205 -95 -15 -155 -60 -194 -146 -16 -35 -19 -69 -19 -268 0
-138 -4 -236 -10 -248 -10 -18 -23 -19 -190 -19 -167 0 -180 1 -190 19 -6 12
-10 110 -10 248 0 199 -3 233 -19 268 -39 86 -99 131 -194 146 -78 13 -77 9
-77 205 0 154 2 174 18 183 24 14 916 15 943 1z m-1669 -3257 c17 -15 18 -43
18 -470 0 -294 -4 -461 -10 -474 -10 -18 -23 -19 -183 -19 -95 0 -179 5 -187
10 -13 8 -15 72 -15 473 0 379 3 467 14 480 20 25 335 25 363 0z m2765 -13
c10 -19 12 -126 11 -478 -3 -390 -5 -454 -18 -462 -8 -5 -92 -10 -187 -10
-160 0 -173 1 -183 19 -6 13 -10 179 -10 472 0 409 2 454 17 471 15 17 32 18
187 16 l170 -3 13 -25z"/>
</g>
</svg>
