<?xml version="1.0" standalone="no"?>
<!DOCTYPE svg PUBLIC "-//W3C//DTD SVG 20010904//EN"
 "http://www.w3.org/TR/2001/REC-SVG-20010904/DTD/svg10.dtd">
<svg version="1.0" xmlns="http://www.w3.org/2000/svg"
 width="512.000000pt" height="512.000000pt" viewBox="0 0 512.000000 512.000000"
 preserveAspectRatio="xMidYMid meet">

<g transform="translate(0.000000,512.000000) scale(0.100000,-0.100000)"
fill="#000000" stroke="none">
<path d="M551 5109 c-243 -47 -441 -221 -518 -453 -23 -70 -27 -97 -27 -206 0
-109 4 -136 27 -206 60 -182 213 -345 384 -413 l48 -19 5 -483 c5 -432 8 -490
24 -539 23 -70 50 -123 92 -182 l34 -48 -34 -47 c-42 -60 -69 -113 -92 -183
-16 -49 -19 -107 -24 -538 l-5 -484 -56 -23 c-170 -69 -316 -228 -376 -409
-23 -70 -27 -97 -27 -206 0 -109 4 -136 27 -206 66 -200 231 -365 431 -431 70
-23 97 -27 206 -27 109 0 136 4 206 27 200 66 365 231 431 431 23 70 27 97 27
206 0 109 -4 136 -27 206 -60 181 -207 341 -377 411 l-55 22 0 458 0 458 24
38 c13 21 42 50 64 65 l41 27 688 3 688 3 -2 -527 -3 -526 -56 -23 c-170 -69
-316 -228 -376 -409 -23 -70 -27 -97 -27 -206 0 -109 4 -136 27 -206 66 -200
231 -365 431 -431 70 -23 97 -27 206 -27 109 0 136 4 206 27 200 66 365 231
431 431 23 70 27 97 27 206 0 109 -4 136 -27 206 -60 181 -207 342 -377 411
l-55 22 -3 525 -2 526 668 0 c633 0 673 1 746 20 201 51 361 201 429 400 21
62 22 84 27 548 l5 483 55 22 c169 69 317 231 377 411 23 70 27 97 27 206 0
109 -4 136 -27 206 -96 290 -376 481 -677 461 -274 -18 -511 -201 -597 -461
-23 -70 -27 -97 -27 -206 0 -109 4 -136 27 -206 60 -182 212 -345 384 -413
l48 -19 0 -458 0 -459 -24 -38 c-13 -21 -42 -50 -64 -65 l-41 -27 -668 -3
-668 -3 2 526 3 526 55 22 c169 69 317 231 377 411 23 70 27 97 27 206 0 109
-4 136 -27 206 -96 290 -376 481 -677 461 -274 -18 -511 -201 -597 -461 -23
-70 -27 -97 -27 -206 0 -109 4 -136 27 -206 60 -182 212 -345 384 -413 l48
-19 3 -526 2 -527 -688 3 -688 3 -41 27 c-22 15 -51 44 -64 65 l-24 38 0 458
0 458 55 22 c169 69 317 231 377 411 23 70 27 97 27 206 0 109 -4 136 -27 206
-59 179 -199 333 -372 409 -107 48 -271 66 -384 44z m251 -426 c92 -51 146
-155 135 -261 -15 -145 -149 -254 -295 -239 -145 15 -254 149 -239 295 11 102
92 201 191 232 57 17 150 5 208 -27z m1910 0 c92 -51 146 -155 135 -261 -15
-145 -149 -254 -295 -239 -145 15 -254 149 -239 295 11 102 92 201 191 232 57
17 150 5 208 -27z m1870 0 c92 -51 146 -155 135 -261 -15 -145 -149 -254 -295
-239 -145 15 -254 149 -239 295 11 102 92 201 191 232 57 17 150 5 208 -27z
m-3780 -3780 c92 -51 146 -155 135 -261 -15 -145 -149 -254 -295 -239 -145 15
-254 149 -239 295 11 102 92 201 191 232 57 17 150 5 208 -27z m1910 0 c92
-51 146 -155 135 -261 -15 -145 -149 -254 -295 -239 -145 15 -254 149 -239
295 11 102 92 201 191 232 57 17 150 5 208 -27z"/>
<path d="M3900 860 l0 -860 200 0 200 0 0 305 0 305 28 0 c25 0 36 -17 181
-305 l155 -305 224 0 c123 0 222 3 220 8 -1 4 -75 149 -163 322 -88 173 -161
317 -162 320 -2 3 20 16 47 29 109 54 217 182 260 311 103 305 -85 640 -401
715 -51 12 -138 15 -426 15 l-363 0 0 -860z m746 434 c51 -38 69 -71 69 -129
0 -58 -18 -91 -69 -129 -24 -19 -44 -21 -187 -24 l-159 -3 0 156 0 156 159 -3
c143 -3 163 -5 187 -24z"/>
</g>
</svg>
