<?xml version="1.0" standalone="no"?>
<!DOCTYPE svg PUBLIC "-//W3C//DTD SVG 20010904//EN"
 "http://www.w3.org/TR/2001/REC-SVG-20010904/DTD/svg10.dtd">
<svg version="1.0" xmlns="http://www.w3.org/2000/svg"
 width="512.000000pt" height="512.000000pt" viewBox="0 0 512.000000 512.000000"
 preserveAspectRatio="xMidYMid meet">

<g transform="translate(0.000000,512.000000) scale(0.100000,-0.100000)"
fill="#000000" stroke="none">
<path d="M908 4940 c-144 -26 -255 -85 -364 -194 -141 -141 -198 -279 -198
-476 -1 -130 15 -201 65 -304 84 -172 257 -312 444 -361 91 -24 254 -22 351 5
233 63 421 255 480 490 20 78 22 242 5 320 -22 95 -93 228 -161 302 -130 143
-287 216 -475 223 -55 2 -121 0 -147 -5z"/>
<path d="M3978 4940 c-257 -47 -478 -250 -543 -500 -23 -86 -23 -254 -1 -340
60 -235 247 -427 480 -490 97 -27 260 -29 351 -5 187 49 360 189 444 361 50
103 66 174 65 304 0 197 -57 335 -198 476 -133 133 -267 192 -451 199 -55 2
-121 0 -147 -5z"/>
<path d="M2445 4259 c-232 -23 -428 -118 -608 -296 -130 -129 -209 -260 -264
-442 -25 -79 -27 -100 -27 -271 -1 -163 2 -195 23 -270 73 -270 263 -508 512
-644 282 -154 676 -154 958 0 249 136 439 374 512 644 21 75 24 107 23 270 0
171 -2 192 -27 271 -55 182 -134 313 -264 442 -186 184 -374 273 -628 297 -60
5 -112 9 -115 9 -3 -1 -45 -6 -95 -10z"/>
<path d="M245 3564 c-135 -70 -204 -263 -236 -659 -17 -214 -8 -357 26 -434
51 -114 178 -203 334 -236 52 -11 134 -15 289 -15 l218 0 64 66 c148 150 327
237 548 265 l93 12 -17 25 c-84 128 -144 273 -174 422 -18 87 -21 131 -18 256
l3 150 -90 -24 c-125 -33 -310 -41 -423 -18 -118 24 -238 68 -388 142 -139 68
-176 76 -229 48z"/>
<path d="M4649 3517 c-137 -69 -305 -129 -413 -148 -101 -17 -289 -6 -401 23
l-90 24 3 -150 c3 -125 0 -169 -18 -256 -30 -149 -90 -294 -174 -422 l-17 -25
93 -12 c221 -28 400 -115 548 -265 l64 -66 218 0 c155 0 237 4 289 15 156 33
283 122 334 236 23 53 28 79 32 183 6 128 -8 342 -32 488 -29 182 -84 318
-155 382 -83 75 -118 74 -281 -7z"/>
<path d="M1448 2374 c-364 -66 -601 -367 -708 -902 -39 -198 -50 -311 -52
-542 -2 -156 2 -209 15 -265 59 -237 242 -415 484 -472 73 -17 154 -18 1373
-18 1219 0 1300 1 1373 18 221 52 397 208 466 413 34 103 42 211 31 435 -34
697 -247 1146 -615 1293 -78 31 -234 60 -291 53 -28 -3 -72 -24 -140 -67 -54
-35 -137 -87 -182 -116 -46 -29 -109 -63 -140 -75 -240 -91 -296 -102 -502
-103 -185 0 -263 14 -439 80 -121 45 -131 50 -291 154 -222 144 -221 143 -382
114z"/>
</g>
</svg>
